<?xml version="1.0" encoding="UTF-8"?>
<svg xmlns="http://www.w3.org/2000/svg"
     xmlns:xlink="http://www.w3.org/1999/xlink"
     version="1.2"
     width="160mm" height="160mm" viewBox="0 0 160 160"
     stroke="none"
     fill="#000000"
     stroke-width="0.3"
     font-size="3.88"
>
<defs>
  <marker id="arrow" markerWidth="15" markerHeight="7" refX="5" refY="3.5" orient="auto" markerUnits="strokeWidth">
    <path d="M0,0 L15,3.5 L0,7 z" stroke="context-stroke" fill="context-stroke"/>
  </marker>
</defs>
<g stroke-width="1.5" fill="#000000" fill-opacity="0.000" id="img-856f3db9-1">
  <g transform="translate(33.25,145.27)" stroke="#FDE725">
    <path fill="none" d="M-1.34,0.59 L1.34,-0.59 " class="primitive"/>
  </g>
  <g transform="translate(29.09,145.41)" stroke="#FDE725">
    <path fill="none" d="M-0.25,-0.32 L0.25,0.32 " class="primitive"/>
  </g>
  <g transform="translate(31.2,143.65)" stroke="#2EB37C">
    <path fill="none" d="M-0.43,1.15 L0.43,-1.15 " class="primitive"/>
  </g>
  <g transform="translate(42.07,142.2)" stroke="#FDE725">
    <path fill="none" d="M-3.73,1.11 L3.73,-1.11 " class="primitive"/>
  </g>
  <g transform="translate(34.38,142.25)" stroke="#FDE725">
    <path fill="none" d="M0.48,0.38 L-0.48,-0.38 " class="primitive"/>
  </g>
  <g transform="translate(38.9,140.34)" stroke="#2D718E">
    <path fill="none" d="M-1.33,1.89 L1.33,-1.89 " class="primitive"/>
  </g>
  <g transform="translate(55.21,139)" stroke="#FDE725">
    <path fill="none" d="M-5.54,1.13 L5.54,-1.13 " class="primitive"/>
  </g>
  <g transform="translate(44.54,138.67)" stroke="#FDE725">
    <path fill="none" d="M1.44,0.85 L-1.44,-0.85 " class="primitive"/>
  </g>
  <g transform="translate(51.18,137.09)" stroke="#28AE80">
    <path fill="none" d="M-2.05,2.03 L2.05,-2.03 " class="primitive"/>
  </g>
  <g transform="translate(71.35,136.25)" stroke="#FDE725">
    <path fill="none" d="M-6.66,0.94 L6.66,-0.94 " class="primitive"/>
  </g>
  <g transform="translate(58.67,135.56)" stroke="#ACDC31">
    <path fill="none" d="M2.22,1.06 L-2.22,-1.06 " class="primitive"/>
  </g>
  <g transform="translate(66.76,134.2)" stroke="#54C568">
    <path fill="none" d="M-2.5,2.02 L2.5,-2.02 " class="primitive"/>
  </g>
  <g transform="translate(89.06,134.25)" stroke="#FDE725">
    <path fill="none" d="M-7.08,0.6 L7.08,-0.6 " class="primitive"/>
  </g>
  <g transform="translate(75.4,132.98)" stroke="#68CC5C">
    <path fill="none" d="M2.76,1.23 L-2.76,-1.23 " class="primitive"/>
  </g>
  <g transform="translate(84.18,131.94)" stroke="#8DD645">
    <path fill="none" d="M-2.58,1.9 L2.58,-1.9 " class="primitive"/>
  </g>
  <g transform="translate(107,133.39)" stroke="#FDE725">
    <path fill="none" d="M-6.87,0.07 L6.87,-0.07 " class="primitive"/>
  </g>
  <g transform="translate(93.25,131.17)" stroke="#35B778">
    <path fill="none" d="M3.07,1.46 L-3.07,-1.46 " class="primitive"/>
  </g>
  <g transform="translate(102.05,130.56)" stroke="#FDE725">
    <path fill="none" d="M-2.32,1.72 L2.32,-1.72 " class="primitive"/>
  </g>
  <g transform="translate(124.67,134.58)" stroke="#FDE725">
    <path fill="none" d="M-6.83,-0.99 L6.83,0.99 " class="primitive"/>
  </g>
  <g transform="translate(110.92,130.48)" stroke="#218E8D">
    <path fill="none" d="M3.21,1.84 L-3.21,-1.84 " class="primitive"/>
  </g>
  <g transform="translate(118.54,130.23)" stroke="#FDE725">
    <path fill="none" d="M-1.36,1.56 L1.36,-1.56 " class="primitive"/>
  </g>
  <g transform="translate(137.61,135.67)" stroke="#FDE725">
    <path fill="none" d="M-2.13,0.1 L2.13,-0.1 " class="primitive"/>
  </g>
  <g transform="translate(134.67,132.58)" stroke="#FDE725">
    <path fill="none" d="M-0.51,1.4 L0.51,-1.4 " class="primitive"/>
  </g>
  <g transform="translate(144.2,136.5)" stroke="#FDE725">
    <path fill="none" d="M-0.62,-0.26 L0.62,0.26 " class="primitive"/>
  </g>
  <g transform="translate(138.8,132.39)" stroke="#1FA088">
    <path fill="none" d="M1.56,1.64 L-1.56,-1.64 " class="primitive"/>
  </g>
  <g transform="translate(142.31,132.63)" stroke="#C2DF23">
    <path fill="none" d="M-0.18,0.89 L0.18,-0.89 " class="primitive"/>
  </g>
  <g transform="translate(144.77,133.65)" stroke="#BDDF26">
    <path fill="none" d="M1.01,2.07 L-1.01,-2.07 " class="primitive"/>
  </g>
  <g transform="translate(30.22,142.39)" stroke="#2EB37C">
    <path fill="none" d="M-0.57,0.48 L0.57,-0.48 " class="primitive"/>
  </g>
  <g transform="translate(28.47,139.2)" stroke="#FDE725">
    <path fill="none" d="M-0.21,2.96 L0.21,-2.96 " class="primitive"/>
  </g>
  <g transform="translate(36.85,138.72)" stroke="#FDE725">
    <path fill="none" d="M-2.68,1.13 L2.68,-1.13 " class="primitive"/>
  </g>
  <g transform="translate(30.58,137.44)" stroke="#FDE725">
    <path fill="none" d="M0.79,1.44 L-0.79,-1.44 " class="primitive"/>
  </g>
  <g transform="translate(33.92,134.16)" stroke="#2C738E">
    <path fill="none" d="M-1.11,4.52 L1.11,-4.52 " class="primitive"/>
  </g>
  <g transform="translate(48.01,135.23)" stroke="#FDE725">
    <path fill="none" d="M-4.69,1.12 L4.69,-1.12 " class="primitive"/>
  </g>
  <g transform="translate(38.44,132.25)" stroke="#FDE725">
    <path fill="none" d="M1.85,2.88 L-1.85,-2.88 " class="primitive"/>
  </g>
  <g transform="translate(44.1,130.82)" stroke="#D5E21A">
    <path fill="none" d="M-1.89,4.17 L1.89,-4.17 " class="primitive"/>
  </g>
  <g transform="translate(62.73,132.29)" stroke="#FDE725">
    <path fill="none" d="M-6.11,1.03 L6.11,-1.03 " class="primitive"/>
  </g>
  <g transform="translate(50.73,129.24)" stroke="#83D44B">
    <path fill="none" d="M2.58,2.91 L-2.58,-2.91 " class="primitive"/>
  </g>
  <g transform="translate(58.24,127.9)" stroke="#8CD646">
    <path fill="none" d="M-2.53,4.04 L2.53,-4.04 " class="primitive"/>
  </g>
  <g transform="translate(79.59,129.89)" stroke="#FDE725">
    <path fill="none" d="M-6.79,0.8 L6.79,-0.8 " class="primitive"/>
  </g>
  <g transform="translate(66.32,126.55)" stroke="#6FCE58">
    <path fill="none" d="M3.06,2.99 L-3.06,-2.99 " class="primitive"/>
  </g>
  <g transform="translate(74.72,125.34)" stroke="#82D34C">
    <path fill="none" d="M-2.76,3.95 L2.76,-3.95 " class="primitive"/>
  </g>
  <g transform="translate(97.17,128.25)" stroke="#FDE725">
    <path fill="none" d="M-6.8,0.46 L6.8,-0.46 " class="primitive"/>
  </g>
  <g transform="translate(83.5,124.3)" stroke="#72CF56">
    <path fill="none" d="M3.41,3.18 L-3.41,-3.18 " class="primitive"/>
  </g>
  <g transform="translate(92.02,123.4)" stroke="#88D548">
    <path fill="none" d="M-2.53,3.78 L2.53,-3.78 " class="primitive"/>
  </g>
  <g transform="translate(113.59,127.4)" stroke="#FDE725">
    <path fill="none" d="M-5.62,0.18 L5.62,-0.18 " class="primitive"/>
  </g>
  <g transform="translate(100.82,122.8)" stroke="#CEE11D">
    <path fill="none" d="M3.7,3.48 L-3.7,-3.48 " class="primitive"/>
  </g>
  <g transform="translate(109.6,122.34)" stroke="#FDE725">
    <path fill="none" d="M-2.5,3.66 L2.5,-3.66 " class="primitive"/>
  </g>
  <g transform="translate(128.54,128.23)" stroke="#FDE725">
    <path fill="none" d="M-5.34,-0.78 L5.34,0.78 " class="primitive"/>
  </g>
  <g transform="translate(117.22,122.1)" stroke="#59C765">
    <path fill="none" d="M2.75,3.49 L-2.75,-3.49 " class="primitive"/>
  </g>
  <g transform="translate(125.5,123.82)" stroke="#60CA60">
    <path fill="none" d="M-2.71,2.11 L2.71,-2.11 " class="primitive"/>
  </g>
  <g transform="translate(139.37,129.54)" stroke="#FDE725">
    <path fill="none" d="M-1.52,-0.1 L1.52,0.1 " class="primitive"/>
  </g>
  <g transform="translate(132.82,124.9)" stroke="#3BBB75">
    <path fill="none" d="M1.9,2.76 L-1.9,-2.76 " class="primitive"/>
  </g>
  <g transform="translate(137.3,123.99)" stroke="#FDE725">
    <path fill="none" d="M-0.92,3.38 L0.92,-3.38 " class="primitive"/>
  </g>
  <g transform="translate(140.81,124.23)" stroke="#23A884">
    <path fill="none" d="M1.37,3.67 L-1.37,-3.67 " class="primitive"/>
  </g>
  <g transform="translate(143.04,124.6)" stroke="#FDE725">
    <path fill="none" d="M-0.09,3.17 L0.09,-3.17 " class="primitive"/>
  </g>
  <g transform="translate(32.16,130.97)" stroke="#FDE725">
    <path fill="none" d="M-1.91,1.87 L1.91,-1.87 " class="primitive"/>
  </g>
  <g transform="translate(27.48,124.76)" stroke="#FDE725">
    <path fill="none" d="M1.06,7.5 L-1.06,-7.5 " class="primitive"/>
  </g>
  <g transform="translate(41.16,126.26)" stroke="#DCE319">
    <path fill="none" d="M-3.72,0.94 L3.72,-0.94 " class="primitive"/>
  </g>
  <g transform="translate(33.03,118.9)" stroke="#FDE725">
    <path fill="none" d="M1.93,6.87 L-1.93,-6.87 " class="primitive"/>
  </g>
  <g transform="translate(37.27,119.57)" stroke="#7AD151">
    <path fill="none" d="M-1.34,6.18 L1.34,-6.18 " class="primitive"/>
  </g>
  <g transform="translate(54.33,123.5)" stroke="#FDE725">
    <path fill="none" d="M-5.54,0.98 L5.54,-0.98 " class="primitive"/>
  </g>
  <g transform="translate(42.93,118.13)" stroke="#FDE725">
    <path fill="none" d="M2.89,4.97 L-2.89,-4.97 " class="primitive"/>
  </g>
  <g transform="translate(49.9,117.23)" stroke="#DCE319">
    <path fill="none" d="M-2.33,5.75 L2.33,-5.75 " class="primitive"/>
  </g>
  <g transform="translate(70.23,120.96)" stroke="#FDE725">
    <path fill="none" d="M-6.42,0.92 L6.42,-0.92 " class="primitive"/>
  </g>
  <g transform="translate(57.4,115.89)" stroke="#41BE72">
    <path fill="none" d="M3.28,4.64 L-3.28,-4.64 " class="primitive"/>
  </g>
  <g transform="translate(65.7,114.6)" stroke="#7CD24F">
    <path fill="none" d="M-2.96,5.78 L2.96,-5.78 " class="primitive"/>
  </g>
  <g transform="translate(87.14,118.85)" stroke="#FDE725">
    <path fill="none" d="M-6.53,0.69 L6.53,-0.69 " class="primitive"/>
  </g>
  <g transform="translate(74.1,113.4)" stroke="#74D055">
    <path fill="none" d="M3.37,4.73 L-3.37,-4.73 " class="primitive"/>
  </g>
  <g transform="translate(82.18,112.28)" stroke="#48C16E">
    <path fill="none" d="M-2.69,5.67 L2.69,-5.67 " class="primitive"/>
  </g>
  <g transform="translate(104.45,117.49)" stroke="#BBDE27">
    <path fill="none" d="M-6.79,0.36 L6.79,-0.36 " class="primitive"/>
  </g>
  <g transform="translate(90.7,111.38)" stroke="#BBDE27">
    <path fill="none" d="M3.76,4.98 L-3.76,-4.98 " class="primitive"/>
  </g>
  <g transform="translate(97.86,110.58)" stroke="#23A884">
    <path fill="none" d="M-1.62,5.46 L1.62,-5.46 " class="primitive"/>
  </g>
  <g transform="translate(121.51,118.76)" stroke="#FDE725">
    <path fill="none" d="M-6.32,-1.32 L6.32,1.32 " class="primitive"/>
  </g>
  <g transform="translate(106.64,110.12)" stroke="#FDE725">
    <path fill="none" d="M5.21,5.47 L-5.21,-5.47 " class="primitive"/>
  </g>
  <g transform="translate(117.82,108.23)" stroke="#FDE725">
    <path fill="none" d="M-3.66,7.02 L3.66,-7.02 " class="primitive"/>
  </g>
  <g transform="translate(134.27,119.59)" stroke="#FDE725">
    <path fill="none" d="M-2.52,0.51 L2.52,-0.51 " class="primitive"/>
  </g>
  <g transform="translate(131.59,111.94)" stroke="#FDE725">
    <path fill="none" d="M-1.39,6.59 L1.39,-6.59 " class="primitive"/>
  </g>
  <g transform="translate(140.97,119.06)" stroke="#39B977">
    <path fill="none" d="M-0.25,-0.04 L0.25,0.04 " class="primitive"/>
  </g>
  <g transform="translate(136.07,111.03)" stroke="#2C738E">
    <path fill="none" d="M2.01,5.76 L-2.01,-5.76 " class="primitive"/>
  </g>
  <g transform="translate(139.22,110.91)" stroke="#FDE725">
    <path fill="none" d="M-0.35,5.78 L0.35,-5.78 " class="primitive"/>
  </g>
  <g transform="translate(141.44,111.28)" stroke="#FDE725">
    <path fill="none" d="M1.33,6.19 L-1.33,-6.19 " class="primitive"/>
  </g>
  <g transform="translate(28.35,112.69)" stroke="#FDE725">
    <path fill="none" d="M-0.91,1.06 L0.91,-1.06 " class="primitive"/>
  </g>
  <g transform="translate(26.18,105.38)" stroke="#FDE725">
    <path fill="none" d="M-0.03,7.9 L0.03,-7.9 " class="primitive"/>
  </g>
  <g transform="translate(34.8,110.77)" stroke="#43BF71">
    <path fill="none" d="M-2.26,-0.35 L2.26,0.35 " class="primitive"/>
  </g>
  <g transform="translate(28.39,102.79)" stroke="#440154">
    <path fill="none" d="M1.6,5.4 L-1.6,-5.4 " class="primitive"/>
  </g>
  <g transform="translate(31.51,102.84)" stroke="#FDE725">
    <path fill="none" d="M-0.69,5.29 L0.69,-5.29 " class="primitive"/>
  </g>
  <g transform="translate(46.01,110.53)" stroke="#7AD251">
    <path fill="none" d="M-4.99,0.65 L4.99,-0.65 " class="primitive"/>
  </g>
  <g transform="translate(35.75,103.5)" stroke="#7AD251">
    <path fill="none" d="M2.52,6.09 L-2.52,-6.09 " class="primitive"/>
  </g>
  <g transform="translate(40.19,103.44)" stroke="#43BE71">
    <path fill="none" d="M-0.87,6.01 L0.87,-6.01 " class="primitive"/>
  </g>
  <g transform="translate(61.27,108.33)" stroke="#FDE725">
    <path fill="none" d="M-6.32,0.98 L6.32,-0.98 " class="primitive"/>
  </g>
  <g transform="translate(47.16,102.54)" stroke="#FDE725">
    <path fill="none" d="M4.54,5.54 L-4.54,-5.54 " class="primitive"/>
  </g>
  <g transform="translate(57.92,100.7)" stroke="#FDE725">
    <path fill="none" d="M-3.97,7.17 L3.97,-7.17 " class="primitive"/>
  </g>
  <g transform="translate(77.65,105.92)" stroke="#FDE725">
    <path fill="none" d="M-6.1,0.84 L6.1,-0.84 " class="primitive"/>
  </g>
  <g transform="translate(66.22,99.41)" stroke="#440154">
    <path fill="none" d="M2.55,5.8 L-2.55,-5.8 " class="primitive"/>
  </g>
  <g transform="translate(73.21,98.29)" stroke="#FDE725">
    <path fill="none" d="M-2.87,6.91 L2.87,-6.91 " class="primitive"/>
  </g>
  <g transform="translate(92.89,104.01)" stroke="#FDE725">
    <path fill="none" d="M-5.17,0.58 L5.17,-0.58 " class="primitive"/>
  </g>
  <g transform="translate(81.29,97.17)" stroke="#440154">
    <path fill="none" d="M3.44,5.91 L-3.44,-5.91 " class="primitive"/>
  </g>
  <g transform="translate(89.33,95.98)" stroke="#FDE725">
    <path fill="none" d="M-2.85,6.98 L2.85,-6.98 " class="primitive"/>
  </g>
  <g transform="translate(96.49,95.17)" stroke="#440154">
    <path fill="none" d="M2.75,6.2 L-2.75,-6.2 " class="primitive"/>
  </g>
  <g transform="translate(105.09,94.17)" stroke="#FDE725">
    <path fill="none" d="M-4.06,7.29 L4.06,-7.29 " class="primitive"/>
  </g>
  <g transform="translate(127.9,101.41)" stroke="#FDE725">
    <path fill="none" d="M-3.62,-1.3 L3.62,1.3 " class="primitive"/>
  </g>
  <g transform="translate(116.26,92.29)" stroke="#FDE725">
    <path fill="none" d="M4.83,5.63 L-4.83,-5.63 " class="primitive"/>
  </g>
  <g transform="translate(124.86,94.17)" stroke="#440255">
    <path fill="none" d="M-1.61,3.46 L1.61,-3.46 " class="primitive"/>
  </g>
  <g transform="translate(136.54,103.26)" stroke="#FDE725">
    <path fill="none" d="M-1.15,0.05 L1.15,-0.05 " class="primitive"/>
  </g>
  <g transform="translate(130.36,96.14)" stroke="#FDE725">
    <path fill="none" d="M2.27,5.4 L-2.27,-5.4 " class="primitive"/>
  </g>
  <g transform="translate(134.45,94.55)" stroke="#53C568">
    <path fill="none" d="M-0.81,6.85 L0.81,-6.85 " class="primitive"/>
  </g>
  <g transform="translate(137.59,94.42)" stroke="#6BCD5A">
    <path fill="none" d="M1.63,6.77 L-1.63,-6.77 " class="primitive"/>
  </g>
  <g transform="translate(139.76,93.83)" stroke="#FDE725">
    <path fill="none" d="M-0.05,7.3 L0.05,-7.3 " class="primitive"/>
  </g>
  <g transform="translate(29.34,95.52)" stroke="#FDE725">
    <path fill="none" d="M-1.12,-0.02 L1.12,0.02 " class="primitive"/>
  </g>
  <g transform="translate(24.27,86.09)" stroke="#FDE725">
    <path fill="none" d="M1.54,7.43 L-1.54,-7.43 " class="primitive"/>
  </g>
  <g transform="translate(26.47,86.29)" stroke="#FDE725">
    <path fill="none" d="M-0.2,7.18 L0.2,-7.18 " class="primitive"/>
  </g>
  <g transform="translate(36.9,95.51)" stroke="#FDE725">
    <path fill="none" d="M-2.45,0.03 L2.45,-0.03 " class="primitive"/>
  </g>
  <g transform="translate(29.59,86.34)" stroke="#218F8D">
    <path fill="none" d="M2.27,7.32 L-2.27,-7.32 " class="primitive"/>
  </g>
  <g transform="translate(34.82,88.36)" stroke="#FDE725">
    <path fill="none" d="M-1.74,5.3 L1.74,-5.3 " class="primitive"/>
  </g>
  <g transform="translate(39.27,88.3)" stroke="#218F8D">
    <path fill="none" d="M1.52,5.23 L-1.52,-5.23 " class="primitive"/>
  </g>
  <g transform="translate(45.81,86.16)" stroke="#FDE725">
    <path fill="none" d="M-3.59,7.49 L3.59,-7.49 " class="primitive"/>
  </g>
  <g transform="translate(69.85,90.66)" stroke="#FDE725">
    <path fill="none" d="M-5.02,0.8 L5.02,-0.8 " class="primitive"/>
  </g>
  <g transform="translate(56.56,84.32)" stroke="#FDE725">
    <path fill="none" d="M5.01,5.93 L-5.01,-5.93 " class="primitive"/>
  </g>
  <g transform="translate(64.91,82.81)" stroke="#26828E">
    <path fill="none" d="M-1.61,7.02 L1.61,-7.02 " class="primitive"/>
  </g>
  <g transform="translate(84.89,88.34)" stroke="#FDE725">
    <path fill="none" d="M-6.06,0.9 L6.06,-0.9 " class="primitive"/>
  </g>
  <g transform="translate(71.91,81.69)" stroke="#FDE725">
    <path fill="none" d="M3.88,6.16 L-3.88,-6.16 " class="primitive"/>
  </g>
  <g transform="translate(80.18,80.27)" stroke="#21908D">
    <path fill="none" d="M-2.65,7.38 L2.65,-7.38 " class="primitive"/>
  </g>
  <g transform="translate(101.53,86.14)" stroke="#FDE725">
    <path fill="none" d="M-6.61,0.77 L6.61,-0.77 " class="primitive"/>
  </g>
  <g transform="translate(88.22,79.08)" stroke="#FDE725">
    <path fill="none" d="M3.7,6.34 L-3.7,-6.34 " class="primitive"/>
  </g>
  <g transform="translate(96.31,77.56)" stroke="#20938C">
    <path fill="none" d="M-2.72,7.69 L2.72,-7.69 " class="primitive"/>
  </g>
  <g transform="translate(118.72,87.02)" stroke="#FDE725">
    <path fill="none" d="M-6.64,-1.45 L6.64,1.45 " class="primitive"/>
  </g>
  <g transform="translate(104.91,76.56)" stroke="#F6E620">
    <path fill="none" d="M4.18,6.87 L-4.18,-6.87 " class="primitive"/>
  </g>
  <g transform="translate(112.29,74.21)" stroke="#FDE725">
    <path fill="none" d="M-1.78,8.96 L1.78,-8.96 " class="primitive"/>
  </g>
  <g transform="translate(131.4,87.3)" stroke="#67CC5C">
    <path fill="none" d="M-2.22,0.87 L2.22,-0.87 " class="primitive"/>
  </g>
  <g transform="translate(128.16,79.12)" stroke="#FDE725">
    <path fill="none" d="M-0.67,7.79 L0.67,-7.79 " class="primitive"/>
  </g>
  <g transform="translate(137.66,85.12)" stroke="#50C46A">
    <path fill="none" d="M-0.24,0.06 L0.24,-0.06 " class="primitive"/>
  </g>
  <g transform="translate(132.25,77.52)" stroke="#52C569">
    <path fill="none" d="M2.51,6.33 L-2.51,-6.33 " class="primitive"/>
  </g>
  <g transform="translate(135.99,74.86)" stroke="#69CD5B">
    <path fill="none" d="M-0.4,8.85 L0.4,-8.85 " class="primitive"/>
  </g>
  <g transform="translate(138.15,74.27)" stroke="#FDE725">
    <path fill="none" d="M1.35,8.29 L-1.35,-8.29 " class="primitive"/>
  </g>
  <g transform="translate(24.53,76.9)" stroke="#66CC5D">
    <path fill="none" d="M-0.21,-0.02 L0.21,0.02 " class="primitive"/>
  </g>
  <g transform="translate(22.02,67.39)" stroke="#FDE725">
    <path fill="none" d="M0.24,7.31 L-0.24,-7.31 " class="primitive"/>
  </g>
  <g transform="translate(31.95,79.13)" stroke="#FDE725">
    <path fill="none" d="M-3.36,-1.3 L3.36,1.3 " class="primitive"/>
  </g>
  <g transform="translate(24.22,67.6)" stroke="#1F998A">
    <path fill="none" d="M2,7.58 L-2,-7.58 " class="primitive"/>
  </g>
  <g transform="translate(27.14,66.66)" stroke="#FDE725">
    <path fill="none" d="M-0.33,8.45 L0.33,-8.45 " class="primitive"/>
  </g>
  <g transform="translate(43.72,79.01)" stroke="#FDE725">
    <path fill="none" d="M-4.64,1.52 L4.64,-1.52 " class="primitive"/>
  </g>
  <g transform="translate(39,70.88)" stroke="#FDE725">
    <path fill="none" d="M-1.47,8.3 L1.47,-8.3 " class="primitive"/>
  </g>
  <g transform="translate(58.61,75.35)" stroke="#FDE725">
    <path fill="none" d="M-6.39,1.16 L6.39,-1.16 " class="primitive"/>
  </g>
  <g transform="translate(45.54,68.74)" stroke="#21908D">
    <path fill="none" d="M3.72,6.4 L-3.72,-6.4 " class="primitive"/>
  </g>
  <g transform="translate(53.31,67.9)" stroke="#FDE725">
    <path fill="none" d="M-2.41,7.08 L2.41,-7.08 " class="primitive"/>
  </g>
  <g transform="translate(75.24,72.42)" stroke="#FDE725">
    <path fill="none" d="M-6.3,1.08 L6.3,-1.08 " class="primitive"/>
  </g>
  <g transform="translate(61.67,66.38)" stroke="#D5E21A">
    <path fill="none" d="M4.14,5.83 L-4.14,-5.83 " class="primitive"/>
  </g>
  <g transform="translate(70.35,64.91)" stroke="#1FA088">
    <path fill="none" d="M-2.68,7.06 L2.68,-7.06 " class="primitive"/>
  </g>
  <g transform="translate(91.6,69.5)" stroke="#FDE725">
    <path fill="none" d="M-6.13,1.14 L6.13,-1.14 " class="primitive"/>
  </g>
  <g transform="translate(78.62,63.49)" stroke="#F8E621">
    <path fill="none" d="M3.8,5.84 L-3.8,-5.84 " class="primitive"/>
  </g>
  <g transform="translate(86.99,62.06)" stroke="#20928C">
    <path fill="none" d="M-2.75,7.08 L2.75,-7.08 " class="primitive"/>
  </g>
  <g transform="translate(107.08,65.64)" stroke="#3EBC74">
    <path fill="none" d="M-5.48,1.74 L5.48,-1.74 " class="primitive"/>
  </g>
  <g transform="translate(95.08,60.55)" stroke="#FDE725">
    <path fill="none" d="M3.56,5.73 L-3.56,-5.73 " class="primitive"/>
  </g>
  <g transform="translate(101.92,59.13)" stroke="#35B778">
    <path fill="none" d="M-1.74,6.92 L1.74,-6.92 " class="primitive"/>
  </g>
  <g transform="translate(121.73,66.31)" stroke="#FDE725">
    <path fill="none" d="M-5.42,-2.25 L5.42,2.25 " class="primitive"/>
  </g>
  <g transform="translate(109.3,56.78)" stroke="#FDE725">
    <path fill="none" d="M3.92,4.94 L-3.92,-4.94 " class="primitive"/>
  </g>
  <g transform="translate(119.66,54.95)" stroke="#57C765">
    <path fill="none" d="M-4.14,6.65 L4.14,-6.65 " class="primitive"/>
  </g>
  <g transform="translate(132.74,66.67)" stroke="#FDE725">
    <path fill="none" d="M-2.11,1.5 L2.11,-1.5 " class="primitive"/>
  </g>
  <g transform="translate(126.93,57.97)" stroke="#E4E418">
    <path fill="none" d="M1.71,9.4 L-1.71,-9.4 " class="primitive"/>
  </g>
  <g transform="translate(134.96,52.5)" stroke="#FDE725">
    <path fill="none" d="M1.26,9.52 L-1.26,-9.52 " class="primitive"/>
  </g>
  <g transform="translate(136.87,53.11)" stroke="#FDE725">
    <path fill="none" d="M-0.32,8.9 L0.32,-8.9 " class="primitive"/>
  </g>
  <g transform="translate(24.63,57.15)" stroke="#E6E419">
    <path fill="none" d="M-1.01,0.33 L1.01,-0.33 " class="primitive"/>
  </g>
  <g transform="translate(19.65,49.81)" stroke="#FDE725">
    <path fill="none" d="M1.58,6.34 L-1.58,-6.34 " class="primitive"/>
  </g>
  <g transform="translate(21.91,50.36)" stroke="#1F9A8A">
    <path fill="none" d="M-0.15,5.72 L0.15,-5.72 " class="primitive"/>
  </g>
  <g transform="translate(34.18,58.41)" stroke="#FDE725">
    <path fill="none" d="M-4.74,-1.57 L4.74,1.57 " class="primitive"/>
  </g>
  <g transform="translate(24.83,49.43)" stroke="#FDE725">
    <path fill="none" d="M1.97,4.93 L-1.97,-4.93 " class="primitive"/>
  </g>
  <g transform="translate(30.44,51.44)" stroke="#440255">
    <path fill="none" d="M-1.86,3.06 L1.86,-3.06 " class="primitive"/>
  </g>
  <g transform="translate(48.59,59.77)" stroke="#FDE725">
    <path fill="none" d="M-5.79,0.63 L5.79,-0.63 " class="primitive"/>
  </g>
  <g transform="translate(37.07,53.64)" stroke="#FDE725">
    <path fill="none" d="M2.79,5.21 L-2.79,-5.21 " class="primitive"/>
  </g>
  <g transform="translate(43.11,53.88)" stroke="#FDE725">
    <path fill="none" d="M-1.65,4.84 L1.65,-4.84 " class="primitive"/>
  </g>
  <g transform="translate(65.05,57.45)" stroke="#FDE725">
    <path fill="none" d="M-6.71,1.14 L6.71,-1.14 " class="primitive"/>
  </g>
  <g transform="translate(50.89,53.04)" stroke="#440255">
    <path fill="none" d="M4.11,4.42 L-4.11,-4.42 " class="primitive"/>
  </g>
  <g transform="translate(60.27,50.82)" stroke="#FDE725">
    <path fill="none" d="M-3.04,6.3 L3.04,-6.3 " class="primitive"/>
  </g>
  <g transform="translate(82.1,54.55)" stroke="#FDE725">
    <path fill="none" d="M-6.39,1.09 L6.39,-1.09 " class="primitive"/>
  </g>
  <g transform="translate(68.96,49.35)" stroke="#450356">
    <path fill="none" d="M3.61,5 L-3.61,-5 " class="primitive"/>
  </g>
  <g transform="translate(77.78,48.17)" stroke="#FDE725">
    <path fill="none" d="M-3.12,6.03 L3.12,-6.03 " class="primitive"/>
  </g>
  <g transform="translate(97.31,51.7)" stroke="#FDE725">
    <path fill="none" d="M-4.88,1.01 L4.88,-1.01 " class="primitive"/>
  </g>
  <g transform="translate(86.14,46.74)" stroke="#440255">
    <path fill="none" d="M3.2,4.72 L-3.2,-4.72 " class="primitive"/>
  </g>
  <g transform="translate(94.53,45.41)" stroke="#FDE725">
    <path fill="none" d="M-3.13,5.94 L3.13,-5.94 " class="primitive"/>
  </g>
  <g transform="translate(101.37,43.99)" stroke="#433D84">
    <path fill="none" d="M1.97,4.46 L-1.97,-4.46 " class="primitive"/>
  </g>
  <g transform="translate(109.27,42.32)" stroke="#FDE725">
    <path fill="none" d="M-4.04,6.27 L4.04,-6.27 " class="primitive"/>
  </g>
  <g transform="translate(129.15,43.8)" stroke="#FDE725">
    <path fill="none" d="M-2.61,1.71 L2.61,-1.71 " class="primitive"/>
  </g>
  <g transform="translate(119.63,40.48)" stroke="#FDE725">
    <path fill="none" d="M3.94,4.6 L-3.94,-4.6 " class="primitive"/>
  </g>
  <g transform="translate(126.03,38.68)" stroke="#20A586">
    <path fill="none" d="M-0.87,5.95 L0.87,-5.95 " class="primitive"/>
  </g>
  <g transform="translate(135.35,41.6)" stroke="#26838E">
    <path fill="none" d="M-0.01,-0 L0.01,0 " class="primitive"/>
  </g>
  <g transform="translate(130.31,35.87)" stroke="#31B57B">
    <path fill="none" d="M2.08,3.41 L-2.08,-3.41 " class="primitive"/>
  </g>
  <g transform="translate(133.92,34.54)" stroke="#FDE725">
    <path fill="none" d="M-0.34,4.46 L0.34,-4.46 " class="primitive"/>
  </g>
  <g transform="translate(135.84,35.14)" stroke="#FDE725">
    <path fill="none" d="M1.03,5.1 L-1.03,-5.1 " class="primitive"/>
  </g>
  <g transform="translate(19.85,42.08)" stroke="#FDE725">
    <path fill="none" d="M-0.32,-0.08 L0.32,0.08 " class="primitive"/>
  </g>
  <g transform="translate(17.39,35.98)" stroke="#FDE725">
    <path fill="none" d="M0.12,3.55 L-0.12,-3.55 " class="primitive"/>
  </g>
  <g transform="translate(27.72,44.66)" stroke="#FDE725">
    <path fill="none" d="M-3.73,-1.34 L3.73,1.34 " class="primitive"/>
  </g>
  <g transform="translate(19.66,36.53)" stroke="#453882">
    <path fill="none" d="M1.71,4.25 L-1.71,-4.25 " class="primitive"/>
  </g>
  <g transform="translate(22.55,35.99)" stroke="#FDE725">
    <path fill="none" d="M-0.31,4.66 L0.31,-4.66 " class="primitive"/>
  </g>
  <g transform="translate(39.38,46.91)" stroke="#440255">
    <path fill="none" d="M-4.04,-0.16 L4.04,0.16 " class="primitive"/>
  </g>
  <g transform="translate(35.17,39.56)" stroke="#FDE725">
    <path fill="none" d="M-1.33,5.18 L1.33,-5.18 " class="primitive"/>
  </g>
  <g transform="translate(54.8,44.94)" stroke="#FDE725">
    <path fill="none" d="M-7.44,1.75 L7.44,-1.75 " class="primitive"/>
  </g>
  <g transform="translate(41.21,39.8)" stroke="#FDE725">
    <path fill="none" d="M3.22,5.62 L-3.22,-5.62 " class="primitive"/>
  </g>
  <g transform="translate(73,41.54)" stroke="#FDE725">
    <path fill="none" d="M-6.84,0.91 L6.84,-0.91 " class="primitive"/>
  </g>
  <g transform="translate(61.01,36.48)" stroke="#FDE725">
    <path fill="none" d="M2.27,4.46 L-2.27,-4.46 " class="primitive"/>
  </g>
  <g transform="translate(68.12,36.39)" stroke="#453681">
    <path fill="none" d="M-2.88,4.63 L2.88,-4.63 " class="primitive"/>
  </g>
  <g transform="translate(90.2,39.03)" stroke="#FDE725">
    <path fill="none" d="M-6.41,1.02 L6.41,-1.02 " class="primitive"/>
  </g>
  <g transform="translate(76.93,35.22)" stroke="#FDE725">
    <path fill="none" d="M3.5,3.7 L-3.5,-3.7 " class="primitive"/>
  </g>
  <g transform="translate(86.75,34.88)" stroke="#453782">
    <path fill="none" d="M-3.6,4 L3.6,-4 " class="primitive"/>
  </g>
  <g transform="translate(106.49,36.03)" stroke="#FDE725">
    <path fill="none" d="M-5.94,1.25 L5.94,-1.25 " class="primitive"/>
  </g>
  <g transform="translate(95.14,33.55)" stroke="#FDE725">
    <path fill="none" d="M2.18,2.62 L-2.18,-2.62 " class="primitive"/>
  </g>
  <g transform="translate(102.64,31.81)" stroke="#3B508B">
    <path fill="none" d="M-2.91,4.24 L2.91,-4.24 " class="primitive"/>
  </g>
  <g transform="translate(120.79,32.56)" stroke="#FDE725">
    <path fill="none" d="M-4.48,1.26 L4.48,-1.26 " class="primitive"/>
  </g>
  <g transform="translate(110.53,30.14)" stroke="#FDE725">
    <path fill="none" d="M2.51,2.75 L-2.51,-2.75 " class="primitive"/>
  </g>
  <g transform="translate(117.4,28.55)" stroke="#39558C">
    <path fill="none" d="M-2.09,4.04 L2.09,-4.04 " class="primitive"/>
  </g>
  <g transform="translate(130.8,29.42)" stroke="#FDE725">
    <path fill="none" d="M-1.74,0.64 L1.74,-0.64 " class="primitive"/>
  </g>
  <g transform="translate(123.8,26.75)" stroke="#FDE725">
    <path fill="none" d="M2.1,2.48 L-2.1,-2.48 " class="primitive"/>
  </g>
  <g transform="translate(128.34,25.45)" stroke="#3F4788">
    <path fill="none" d="M-0.72,3.35 L0.72,-3.35 " class="primitive"/>
  </g>
  <g transform="translate(131.95,24.12)" stroke="#FDE725">
    <path fill="none" d="M1.41,2.27 L-1.41,-2.27 " class="primitive"/>
  </g>
  <g transform="translate(136,21.63)" stroke="#FDE725">
    <path fill="none" d="M-1.11,4.51 L1.11,-4.51 " class="primitive"/>
  </g>
  <g transform="translate(20.09,29.88)" stroke="#FDE725">
    <path fill="none" d="M-0.93,0.18 L0.93,-0.18 " class="primitive"/>
  </g>
  <g transform="translate(15.27,26.5)" stroke="#CDE11E">
    <path fill="none" d="M1.05,2.13 L-1.05,-2.13 " class="primitive"/>
  </g>
  <g transform="translate(17.75,27.48)" stroke="#83D44B">
    <path fill="none" d="M-0.19,0.98 L0.19,-0.98 " class="primitive"/>
  </g>
  <g transform="translate(29.99,30.89)" stroke="#FDE725">
    <path fill="none" d="M-5.05,-1.12 L5.05,1.12 " class="primitive"/>
  </g>
  <g transform="translate(20.65,26.93)" stroke="#77D153">
    <path fill="none" d="M0.94,0.97 L-0.94,-0.97 " class="primitive"/>
  </g>
  <g transform="translate(25.45,27.3)" stroke="#D0E11C">
    <path fill="none" d="M-0.91,0.76 L0.91,-0.76 " class="primitive"/>
  </g>
  <g transform="translate(47.42,31.34)" stroke="#FDE725">
    <path fill="none" d="M-8.43,0.89 L8.43,-0.89 " class="primitive"/>
  </g>
  <g transform="translate(32.45,28.86)" stroke="#1FA088">
    <path fill="none" d="M2.98,2.35 L-2.98,-2.35 " class="primitive"/>
  </g>
  <g transform="translate(38.62,28.29)" stroke="#FDE725">
    <path fill="none" d="M-0.89,2.29 L0.89,-2.29 " class="primitive"/>
  </g>
  <g transform="translate(64.95,30.15)" stroke="#FDE725">
    <path fill="none" d="M-5.11,0.06 L5.11,-0.06 " class="primitive"/>
  </g>
  <g transform="translate(59.47,27.23)" stroke="#FDE725">
    <path fill="none" d="M-0.68,1.25 L0.68,-1.25 " class="primitive"/>
  </g>
  <g transform="translate(81.87,29.73)" stroke="#FDE725">
    <path fill="none" d="M-7.82,0.27 L7.82,-0.27 " class="primitive"/>
  </g>
  <g transform="translate(66.58,27.14)" stroke="#463580">
    <path fill="none" d="M3.71,1.98 L-3.71,-1.98 " class="primitive"/>
  </g>
  <g transform="translate(74.44,26.02)" stroke="#FDE725">
    <path fill="none" d="M-1.37,2.32 L1.37,-2.32 " class="primitive"/>
  </g>
  <g transform="translate(99.18,27.65)" stroke="#FDE725">
    <path fill="none" d="M-5.55,1.29 L5.55,-1.29 " class="primitive"/>
  </g>
  <g transform="translate(94.74,25.48)" stroke="#FDE725">
    <path fill="none" d="M-1.83,2.34 L1.83,-2.34 " class="primitive"/>
  </g>
  <g transform="translate(113.54,24.33)" stroke="#FDE725">
    <path fill="none" d="M-4.92,1.14 L4.92,-1.14 " class="primitive"/>
  </g>
  <g transform="translate(102.24,23.74)" stroke="#482071">
    <path fill="none" d="M2.64,1.29 L-2.64,-1.29 " class="primitive"/>
  </g>
  <g transform="translate(110.21,22.44)" stroke="#FDE725">
    <path fill="none" d="M-2.11,2.07 L2.11,-2.07 " class="primitive"/>
  </g>
  <g transform="translate(124.94,21.44)" stroke="#FDE725">
    <path fill="none" d="M-2.61,0.75 L2.61,-0.75 " class="primitive"/>
  </g>
  <g transform="translate(117.08,20.85)" stroke="#48186A">
    <path fill="none" d="M1.59,0.9 L-1.59,-0.9 " class="primitive"/>
  </g>
  <g transform="translate(123.06,19.4)" stroke="#FDE725">
    <path fill="none" d="M-1.41,1.77 L1.41,-1.77 " class="primitive"/>
  </g>
  <g transform="translate(127.59,18.11)" stroke="#46327F">
    <path fill="none" d="M0.53,0.57 L-0.53,-0.57 " class="primitive"/>
  </g>
  <g transform="translate(131.36,16.74)" stroke="#FDE725">
    <path fill="none" d="M-0.91,1.66 L0.91,-1.66 " class="primitive"/>
  </g>
  <g transform="translate(135.41,14.25)" stroke="#FDE725">
    <path fill="none" d="M0.33,0.14 L-0.33,-0.14 " class="primitive"/>
  </g>
  <g transform="translate(15.82,23.55)" stroke="#FDE725">
    <path fill="none" d="M-0.63,-0.25 L0.63,0.25 " class="primitive"/>
  </g>
  <g transform="translate(23.11,24.9)" stroke="#FDE725">
    <path fill="none" d="M-2.8,-0.22 L2.8,0.22 " class="primitive"/>
  </g>
  <g transform="translate(34.07,24.7)" stroke="#D5E21A">
    <path fill="none" d="M-4.17,0.39 L4.17,-0.39 " class="primitive"/>
  </g>
  <g transform="translate(50.67,24.17)" stroke="#FDE725">
    <path fill="none" d="M-8.43,-0.04 L8.43,0.04 " class="primitive"/>
  </g>
  <g transform="translate(68.96,23.1)" stroke="#FDE725">
    <path fill="none" d="M-5.88,0.84 L5.88,-0.84 " class="primitive"/>
  </g>
  <g transform="translate(87.31,21.77)" stroke="#FDE725">
    <path fill="none" d="M-8.49,0.17 L8.49,-0.17 " class="primitive"/>
  </g>
  <g transform="translate(105.77,20.27)" stroke="#FDE725">
    <path fill="none" d="M-6,0.98 L6,-0.98 " class="primitive"/>
  </g>
  <g transform="translate(119.72,17.52)" stroke="#FDE725">
    <path fill="none" d="M-4.04,0.98 L4.04,-0.98 " class="primitive"/>
  </g>
  <g transform="translate(129.47,14.7)" stroke="#FDE725">
    <path fill="none" d="M-1.89,0.68 L1.89,-0.68 " class="primitive"/>
  </g>
</g>
<g stroke-width="1.5" id="img-856f3db9-2">
</g>
<g font-size="4" stroke="#000000" stroke-opacity="0.000" fill="#000000" id="img-856f3db9-3">
</g>
<g stroke-width="0" stroke="#000000" stroke-opacity="0.000" fill="#000000" id="img-856f3db9-4">
  <g transform="translate(30.07,146.67)">
    <circle cx="0" cy="0" r="1.92" class="primitive"/>
  </g>
  <g transform="translate(36.42,143.88)">
    <circle cx="0" cy="0" r="1.92" class="primitive"/>
  </g>
  <g transform="translate(47.71,140.53)">
    <circle cx="0" cy="0" r="1.92" class="primitive"/>
  </g>
  <g transform="translate(62.7,137.48)">
    <circle cx="0" cy="0" r="1.92" class="primitive"/>
  </g>
  <g transform="translate(79.99,135.02)">
    <circle cx="0" cy="0" r="1.92" class="primitive"/>
  </g>
  <g transform="translate(98.13,133.48)">
    <circle cx="0" cy="0" r="1.92" class="primitive"/>
  </g>
  <g transform="translate(115.86,133.3)">
    <circle cx="0" cy="0" r="1.92" class="primitive"/>
  </g>
  <g transform="translate(133.48,135.86)">
    <circle cx="0" cy="0" r="1.92" class="primitive"/>
  </g>
  <g transform="translate(141.74,135.48)">
    <circle cx="0" cy="0" r="1.92" class="primitive"/>
  </g>
  <g transform="translate(146.67,137.52)">
    <circle cx="0" cy="0" r="1.92" class="primitive"/>
  </g>
  <g transform="translate(28.11,144.15)">
    <circle cx="0" cy="0" r="1.92" class="primitive"/>
  </g>
  <g transform="translate(32.33,140.63)">
    <circle cx="0" cy="0" r="1.92" class="primitive"/>
  </g>
  <g transform="translate(41.38,136.81)">
    <circle cx="0" cy="0" r="1.92" class="primitive"/>
  </g>
  <g transform="translate(54.64,133.64)">
    <circle cx="0" cy="0" r="1.92" class="primitive"/>
  </g>
  <g transform="translate(70.82,130.93)">
    <circle cx="0" cy="0" r="1.92" class="primitive"/>
  </g>
  <g transform="translate(88.37,128.85)">
    <circle cx="0" cy="0" r="1.92" class="primitive"/>
  </g>
  <g transform="translate(105.97,127.65)">
    <circle cx="0" cy="0" r="1.92" class="primitive"/>
  </g>
  <g transform="translate(121.22,127.16)">
    <circle cx="0" cy="0" r="1.92" class="primitive"/>
  </g>
  <g transform="translate(135.86,129.31)">
    <circle cx="0" cy="0" r="1.92" class="primitive"/>
  </g>
  <g transform="translate(142.88,129.78)">
    <circle cx="0" cy="0" r="1.92" class="primitive"/>
  </g>
  <g transform="translate(28.82,134.24)">
    <circle cx="0" cy="0" r="1.92" class="primitive"/>
  </g>
  <g transform="translate(35.5,127.7)">
    <circle cx="0" cy="0" r="1.92" class="primitive"/>
  </g>
  <g transform="translate(46.82,124.83)">
    <circle cx="0" cy="0" r="1.92" class="primitive"/>
  </g>
  <g transform="translate(61.83,122.17)">
    <circle cx="0" cy="0" r="1.92" class="primitive"/>
  </g>
  <g transform="translate(78.62,119.75)">
    <circle cx="0" cy="0" r="1.92" class="primitive"/>
  </g>
  <g transform="translate(95.66,117.96)">
    <circle cx="0" cy="0" r="1.92" class="primitive"/>
  </g>
  <g transform="translate(113.23,117.03)">
    <circle cx="0" cy="0" r="1.92" class="primitive"/>
  </g>
  <g transform="translate(129.79,120.49)">
    <circle cx="0" cy="0" r="1.92" class="primitive"/>
  </g>
  <g transform="translate(138.75,118.68)">
    <circle cx="0" cy="0" r="1.92" class="primitive"/>
  </g>
  <g transform="translate(143.19,119.43)">
    <circle cx="0" cy="0" r="1.92" class="primitive"/>
  </g>
  <g transform="translate(26.15,115.28)">
    <circle cx="0" cy="0" r="1.92" class="primitive"/>
  </g>
  <g transform="translate(30.56,110.11)">
    <circle cx="0" cy="0" r="1.92" class="primitive"/>
  </g>
  <g transform="translate(39.04,111.44)">
    <circle cx="0" cy="0" r="1.92" class="primitive"/>
  </g>
  <g transform="translate(52.98,109.62)">
    <circle cx="0" cy="0" r="1.92" class="primitive"/>
  </g>
  <g transform="translate(69.57,107.04)">
    <circle cx="0" cy="0" r="1.92" class="primitive"/>
  </g>
  <g transform="translate(85.73,104.81)">
    <circle cx="0" cy="0" r="1.92" class="primitive"/>
  </g>
  <g transform="translate(100.05,103.2)">
    <circle cx="0" cy="0" r="1.92" class="primitive"/>
  </g>
  <g transform="translate(122.4,99.44)">
    <circle cx="0" cy="0" r="1.92" class="primitive"/>
  </g>
  <g transform="translate(133.4,103.39)">
    <circle cx="0" cy="0" r="1.92" class="primitive"/>
  </g>
  <g transform="translate(139.69,103.13)">
    <circle cx="0" cy="0" r="1.92" class="primitive"/>
  </g>
  <g transform="translate(26.22,95.48)">
    <circle cx="0" cy="0" r="1.92" class="primitive"/>
  </g>
  <g transform="translate(32.46,95.56)">
    <circle cx="0" cy="0" r="1.92" class="primitive"/>
  </g>
  <g transform="translate(41.35,95.45)">
    <circle cx="0" cy="0" r="1.92" class="primitive"/>
  </g>
  <g transform="translate(62.86,91.78)">
    <circle cx="0" cy="0" r="1.92" class="primitive"/>
  </g>
  <g transform="translate(76.85,89.54)">
    <circle cx="0" cy="0" r="1.92" class="primitive"/>
  </g>
  <g transform="translate(92.93,87.15)">
    <circle cx="0" cy="0" r="1.92" class="primitive"/>
  </g>
  <g transform="translate(110.13,85.14)">
    <circle cx="0" cy="0" r="1.92" class="primitive"/>
  </g>
  <g transform="translate(127.32,88.9)">
    <circle cx="0" cy="0" r="1.92" class="primitive"/>
  </g>
  <g transform="translate(135.49,85.71)">
    <circle cx="0" cy="0" r="1.92" class="primitive"/>
  </g>
  <g transform="translate(139.82,84.53)">
    <circle cx="0" cy="0" r="1.92" class="primitive"/>
  </g>
  <g transform="translate(22.33,76.7)">
    <circle cx="0" cy="0" r="1.92" class="primitive"/>
  </g>
  <g transform="translate(26.73,77.11)">
    <circle cx="0" cy="0" r="1.92" class="primitive"/>
  </g>
  <g transform="translate(37.18,81.16)">
    <circle cx="0" cy="0" r="1.92" class="primitive"/>
  </g>
  <g transform="translate(50.26,76.87)">
    <circle cx="0" cy="0" r="1.92" class="primitive"/>
  </g>
  <g transform="translate(66.97,73.84)">
    <circle cx="0" cy="0" r="1.92" class="primitive"/>
  </g>
  <g transform="translate(83.51,71.01)">
    <circle cx="0" cy="0" r="1.92" class="primitive"/>
  </g>
  <g transform="translate(99.69,67.98)">
    <circle cx="0" cy="0" r="1.92" class="primitive"/>
  </g>
  <g transform="translate(114.46,63.29)">
    <circle cx="0" cy="0" r="1.92" class="primitive"/>
  </g>
  <g transform="translate(129,69.33)">
    <circle cx="0" cy="0" r="1.92" class="primitive"/>
  </g>
  <g transform="translate(136.48,64.01)">
    <circle cx="0" cy="0" r="1.92" class="primitive"/>
  </g>
  <g transform="translate(21.71,58.09)">
    <circle cx="0" cy="0" r="1.92" class="primitive"/>
  </g>
  <g transform="translate(27.55,56.21)">
    <circle cx="0" cy="0" r="1.92" class="primitive"/>
  </g>
  <g transform="translate(40.81,60.61)">
    <circle cx="0" cy="0" r="1.92" class="primitive"/>
  </g>
  <g transform="translate(56.37,58.92)">
    <circle cx="0" cy="0" r="1.92" class="primitive"/>
  </g>
  <g transform="translate(73.74,55.98)">
    <circle cx="0" cy="0" r="1.92" class="primitive"/>
  </g>
  <g transform="translate(90.47,53.12)">
    <circle cx="0" cy="0" r="1.92" class="primitive"/>
  </g>
  <g transform="translate(104.14,50.27)">
    <circle cx="0" cy="0" r="1.92" class="primitive"/>
  </g>
  <g transform="translate(124.86,46.61)">
    <circle cx="0" cy="0" r="1.92" class="primitive"/>
  </g>
  <g transform="translate(133.44,41)">
    <circle cx="0" cy="0" r="1.92" class="primitive"/>
  </g>
  <g transform="translate(137.27,42.21)">
    <circle cx="0" cy="0" r="1.92" class="primitive"/>
  </g>
  <g transform="translate(17.58,41.52)">
    <circle cx="0" cy="0" r="1.92" class="primitive"/>
  </g>
  <g transform="translate(22.11,42.64)">
    <circle cx="0" cy="0" r="1.92" class="primitive"/>
  </g>
  <g transform="translate(33.34,46.67)">
    <circle cx="0" cy="0" r="1.92" class="primitive"/>
  </g>
  <g transform="translate(45.41,47.15)">
    <circle cx="0" cy="0" r="1.92" class="primitive"/>
  </g>
  <g transform="translate(64.18,42.72)">
    <circle cx="0" cy="0" r="1.92" class="primitive"/>
  </g>
  <g transform="translate(81.81,40.37)">
    <circle cx="0" cy="0" r="1.92" class="primitive"/>
  </g>
  <g transform="translate(98.59,37.7)">
    <circle cx="0" cy="0" r="1.92" class="primitive"/>
  </g>
  <g transform="translate(114.39,34.36)">
    <circle cx="0" cy="0" r="1.92" class="primitive"/>
  </g>
  <g transform="translate(127.19,30.75)">
    <circle cx="0" cy="0" r="1.92" class="primitive"/>
  </g>
  <g transform="translate(134.41,28.08)">
    <circle cx="0" cy="0" r="1.92" class="primitive"/>
  </g>
  <g transform="translate(17.2,30.43)">
    <circle cx="0" cy="0" r="1.92" class="primitive"/>
  </g>
  <g transform="translate(22.99,29.33)">
    <circle cx="0" cy="0" r="1.92" class="primitive"/>
  </g>
  <g transform="translate(37,32.44)">
    <circle cx="0" cy="0" r="1.92" class="primitive"/>
  </g>
  <g transform="translate(57.84,30.24)">
    <circle cx="0" cy="0" r="1.92" class="primitive"/>
  </g>
  <g transform="translate(72.05,30.06)">
    <circle cx="0" cy="0" r="1.92" class="primitive"/>
  </g>
  <g transform="translate(91.68,29.39)">
    <circle cx="0" cy="0" r="1.92" class="primitive"/>
  </g>
  <g transform="translate(106.68,25.91)">
    <circle cx="0" cy="0" r="1.92" class="primitive"/>
  </g>
  <g transform="translate(120.41,22.74)">
    <circle cx="0" cy="0" r="1.92" class="primitive"/>
  </g>
  <g transform="translate(129.48,20.15)">
    <circle cx="0" cy="0" r="1.92" class="primitive"/>
  </g>
  <g transform="translate(137.58,15.17)">
    <circle cx="0" cy="0" r="1.92" class="primitive"/>
  </g>
  <g transform="translate(13.33,22.57)">
    <circle cx="0" cy="0" r="1.92" class="primitive"/>
  </g>
  <g transform="translate(18.31,24.53)">
    <circle cx="0" cy="0" r="1.92" class="primitive"/>
  </g>
  <g transform="translate(27.9,25.27)">
    <circle cx="0" cy="0" r="1.92" class="primitive"/>
  </g>
  <g transform="translate(40.23,24.13)">
    <circle cx="0" cy="0" r="1.92" class="primitive"/>
  </g>
  <g transform="translate(61.1,24.22)">
    <circle cx="0" cy="0" r="1.92" class="primitive"/>
  </g>
  <g transform="translate(76.82,21.98)">
    <circle cx="0" cy="0" r="1.92" class="primitive"/>
  </g>
  <g transform="translate(97.8,21.57)">
    <circle cx="0" cy="0" r="1.92" class="primitive"/>
  </g>
  <g transform="translate(113.74,18.96)">
    <circle cx="0" cy="0" r="1.92" class="primitive"/>
  </g>
  <g transform="translate(125.71,16.07)">
    <circle cx="0" cy="0" r="1.92" class="primitive"/>
  </g>
  <g transform="translate(133.24,13.33)">
    <circle cx="0" cy="0" r="1.92" class="primitive"/>
  </g>
</g>
<g font-size="4" stroke="#000000" stroke-opacity="0.000" fill="#000000" id="img-856f3db9-5">
</g>
</svg>
