<?xml version="1.0" encoding="UTF-8"?>
<svg xmlns="http://www.w3.org/2000/svg"
     xmlns:xlink="http://www.w3.org/1999/xlink"
     version="1.2"
     width="160mm" height="160mm" viewBox="0 0 160 160"
     stroke="none"
     fill="#000000"
     stroke-width="0.3"
     font-size="3.88"
>
<defs>
  <marker id="arrow" markerWidth="15" markerHeight="7" refX="5" refY="3.5" orient="auto" markerUnits="strokeWidth">
    <path d="M0,0 L15,3.5 L0,7 z" stroke="context-stroke" fill="context-stroke"/>
  </marker>
</defs>
<g stroke-width="1.5" fill="#000000" fill-opacity="0.000" id="img-40768487-1">
  <g transform="translate(139.69,119.77)" stroke="#76B4E8">
    <path fill="none" d="M2.94,-0.34 L-2.94,0.34 " class="primitive"/>
  </g>
  <g transform="translate(145.64,116.7)" stroke="#71B0E6">
    <path fill="none" d="M-0.27,0.65 L0.27,-0.65 " class="primitive"/>
  </g>
  <g transform="translate(143.41,116.24)" stroke="#610102">
    <path fill="none" d="M0.45,1.11 L-0.45,-1.11 " class="primitive"/>
  </g>
  <g transform="translate(127.07,121.67)" stroke="#FFE6DF">
    <path fill="none" d="M5.71,-0.98 L-5.71,0.98 " class="primitive"/>
  </g>
  <g transform="translate(138.48,116.82)" stroke="#76B4E8">
    <path fill="none" d="M-2.27,2.15 L2.27,-2.15 " class="primitive"/>
  </g>
  <g transform="translate(129.46,118.13)" stroke="#76B4E8">
    <path fill="none" d="M3.45,1.45 L-3.45,-1.45 " class="primitive"/>
  </g>
  <g transform="translate(110.85,124.74)" stroke="#81BCEB">
    <path fill="none" d="M6.58,-1.34 L-6.58,1.34 " class="primitive"/>
  </g>
  <g transform="translate(121.78,119.45)" stroke="#FFA797">
    <path fill="none" d="M-1.27,1.89 L1.27,-1.89 " class="primitive"/>
  </g>
  <g transform="translate(114.77,120.84)" stroke="#FFE3DB">
    <path fill="none" d="M2.81,1.31 L-2.81,-1.31 " class="primitive"/>
  </g>
  <g transform="translate(92.99,128.48)" stroke="#86C0ED">
    <path fill="none" d="M7.36,-1.58 L-7.36,1.58 " class="primitive"/>
  </g>
  <g transform="translate(106.22,122.58)" stroke="#FFB6A6">
    <path fill="none" d="M-2.5,2.49 L2.5,-2.49 " class="primitive"/>
  </g>
  <g transform="translate(97.42,124.44)" stroke="#FFD4C9">
    <path fill="none" d="M3.03,1.27 L-3.03,-1.27 " class="primitive"/>
  </g>
  <g transform="translate(74.44,132.54)" stroke="#7CB8E9">
    <path fill="none" d="M7.29,-1.62 L-7.29,1.62 " class="primitive"/>
  </g>
  <g transform="translate(88.11,126.44)" stroke="#FFC8BA">
    <path fill="none" d="M-2.95,2.69 L2.95,-2.69 " class="primitive"/>
  </g>
  <g transform="translate(78.95,128.39)" stroke="#FFC3B5">
    <path fill="none" d="M2.9,1.29 L-2.9,-1.29 " class="primitive"/>
  </g>
  <g transform="translate(55.94,136.63)" stroke="#97CBF1">
    <path fill="none" d="M7.3,-1.61 L-7.3,1.61 " class="primitive"/>
  </g>
  <g transform="translate(69.71,130.44)" stroke="#FFD4C9">
    <path fill="none" d="M-3.04,2.79 L3.04,-2.79 " class="primitive"/>
  </g>
  <g transform="translate(61.95,132.21)" stroke="#FFBAAB">
    <path fill="none" d="M1.63,1.2 L-1.63,-1.2 " class="primitive"/>
  </g>
  <g transform="translate(39.57,140.5)" stroke="#C5E5F9">
    <path fill="none" d="M5.18,-1.34 L-5.18,1.34 " class="primitive"/>
  </g>
  <g transform="translate(52.7,134.25)" stroke="#FFEAE3">
    <path fill="none" d="M-4.4,3.23 L4.4,-3.23 " class="primitive"/>
  </g>
  <g transform="translate(41.29,136.31)" stroke="#E1F2FC">
    <path fill="none" d="M3.57,1.55 L-3.57,-1.55 " class="primitive"/>
  </g>
  <g transform="translate(29.35,144.5)" stroke="#ACD7F5">
    <path fill="none" d="M1.47,-1.02 L-1.47,1.02 " class="primitive"/>
  </g>
  <g transform="translate(34.17,138.15)" stroke="#FFC3B5">
    <path fill="none" d="M-0.96,2.34 L0.96,-2.34 " class="primitive"/>
  </g>
  <g transform="translate(30.62,138.84)" stroke="#FFB6A6">
    <path fill="none" d="M0.91,1.73 L-0.91,-1.73 " class="primitive"/>
  </g>
  <g transform="translate(27.51,141)" stroke="#E6F4FD">
    <path fill="none" d="M-0.83,3.72 L0.83,-3.72 " class="primitive"/>
  </g>
  <g transform="translate(144.43,113.74)" stroke="#76B4E8">
    <path fill="none" d="M0.28,0.06 L-0.28,-0.06 " class="primitive"/>
  </g>
  <g transform="translate(144.64,107.81)" stroke="#76B4E8">
    <path fill="none" d="M1.42,4.48 L-1.42,-4.48 " class="primitive"/>
  </g>
  <g transform="translate(142.41,107.35)" stroke="#610102">
    <path fill="none" d="M-0.14,3.94 L0.14,-3.94 " class="primitive"/>
  </g>
  <g transform="translate(137.33,108.03)" stroke="#76B4E8">
    <path fill="none" d="M3.51,3.79 L-3.51,-3.79 " class="primitive"/>
  </g>
  <g transform="translate(117.16,117.29)" stroke="#71B0E6">
    <path fill="none" d="M5.05,-1 L-5.05,1 " class="primitive"/>
  </g>
  <g transform="translate(128.31,109.34)" stroke="#76B4E8">
    <path fill="none" d="M-3.08,4.87 L3.08,-4.87 " class="primitive"/>
  </g>
  <g transform="translate(120.65,110.77)" stroke="#FFAC9C">
    <path fill="none" d="M2.39,3.48 L-2.39,-3.48 " class="primitive"/>
  </g>
  <g transform="translate(101.35,120.54)" stroke="#76B4E8">
    <path fill="none" d="M6.84,-1.45 L-6.84,1.45 " class="primitive"/>
  </g>
  <g transform="translate(113.64,112.16)" stroke="#FFDFD6">
    <path fill="none" d="M-2.55,4.76 L2.55,-4.76 " class="primitive"/>
  </g>
  <g transform="translate(105.39,113.86)" stroke="#FFBFB0">
    <path fill="none" d="M3.35,3.4 L-3.35,-3.4 " class="primitive"/>
  </g>
  <g transform="translate(83.38,124.35)" stroke="#71B0E6">
    <path fill="none" d="M7.2,-1.53 L-7.2,1.53 " class="primitive"/>
  </g>
  <g transform="translate(96.59,115.72)" stroke="#FFD0C4">
    <path fill="none" d="M-3.01,4.97 L3.01,-4.97 " class="primitive"/>
  </g>
  <g transform="translate(87.48,117.69)" stroke="#FFD4C9">
    <path fill="none" d="M3.6,3.35 L-3.6,-3.35 " class="primitive"/>
  </g>
  <g transform="translate(66.47,128.06)" stroke="#76B4E8">
    <path fill="none" d="M5.81,-1.32 L-5.81,1.32 " class="primitive"/>
  </g>
  <g transform="translate(78.32,119.64)" stroke="#FFBAAB">
    <path fill="none" d="M-3.05,4.96 L3.05,-4.96 " class="primitive"/>
  </g>
  <g transform="translate(69.05,121.25)" stroke="#FFDFD6">
    <path fill="none" d="M3.75,3.65 L-3.75,-3.65 " class="primitive"/>
  </g>
  <g transform="translate(61.29,123.02)" stroke="#FFB1A1">
    <path fill="none" d="M-1.87,4.94 L1.87,-4.94 " class="primitive"/>
  </g>
  <g transform="translate(52.91,125.59)" stroke="#71B0E6">
    <path fill="none" d="M4.19,3.06 L-4.19,-3.06 " class="primitive"/>
  </g>
  <g transform="translate(32.34,134.65)" stroke="#5B9EDC">
    <path fill="none" d="M1.59,-0.31 L-1.59,0.31 " class="primitive"/>
  </g>
  <g transform="translate(41.5,127.65)" stroke="#A7D4F4">
    <path fill="none" d="M-4.28,4.81 L4.28,-4.81 " class="primitive"/>
  </g>
  <g transform="translate(33.77,126.58)" stroke="#C03229">
    <path fill="none" d="M1.57,5.46 L-1.57,-5.46 " class="primitive"/>
  </g>
  <g transform="translate(30.21,127.26)" stroke="#C0E2F8">
    <path fill="none" d="M-1.08,6.1 L1.08,-6.1 " class="primitive"/>
  </g>
  <g transform="translate(27.4,128.3)" stroke="#A7D4F4">
    <path fill="none" d="M0.99,5.07 L-0.99,-5.07 " class="primitive"/>
  </g>
  <g transform="translate(137.54,102.1)" stroke="#76B4E8">
    <path fill="none" d="M3.1,-0.42 L-3.1,0.42 " class="primitive"/>
  </g>
  <g transform="translate(142.84,93.4)" stroke="#76B4E8">
    <path fill="none" d="M-0.17,6.01 L0.17,-6.01 " class="primitive"/>
  </g>
  <g transform="translate(140.71,93.44)" stroke="#610102">
    <path fill="none" d="M1.44,6.02 L-1.44,-6.02 " class="primitive"/>
  </g>
  <g transform="translate(124.8,104.21)" stroke="#FFDFD6">
    <path fill="none" d="M5.69,-1.06 L-5.69,1.06 " class="primitive"/>
  </g>
  <g transform="translate(135.63,94.13)" stroke="#76B4E8">
    <path fill="none" d="M-2.48,6.77 L2.48,-6.77 " class="primitive"/>
  </g>
  <g transform="translate(127,95.74)" stroke="#71B0E6">
    <path fill="none" d="M4.23,5.45 L-4.23,-5.45 " class="primitive"/>
  </g>
  <g transform="translate(108.88,107.34)" stroke="#86C0ED">
    <path fill="none" d="M6.3,-1.3 L-6.3,1.3 " class="primitive"/>
  </g>
  <g transform="translate(119.34,97.17)" stroke="#FFAC9C">
    <path fill="none" d="M-1.7,6.53 L1.7,-6.53 " class="primitive"/>
  </g>
  <g transform="translate(112.59,98.75)" stroke="#FFE3DB">
    <path fill="none" d="M3.44,5.22 L-3.44,-5.22 " class="primitive"/>
  </g>
  <g transform="translate(91.52,111.01)" stroke="#8CC3EE">
    <path fill="none" d="M7.15,-1.54 L-7.15,1.54 " class="primitive"/>
  </g>
  <g transform="translate(104.34,100.45)" stroke="#FFBAAB">
    <path fill="none" d="M-2.92,6.75 L2.92,-6.75 " class="primitive"/>
  </g>
  <g transform="translate(95.47,102.07)" stroke="#FFD4C9">
    <path fill="none" d="M3.97,5.36 L-3.97,-5.36 " class="primitive"/>
  </g>
  <g transform="translate(73.14,114.59)" stroke="#81BCEB">
    <path fill="none" d="M7.3,-1.27 L-7.3,1.27 " class="primitive"/>
  </g>
  <g transform="translate(86.36,104.04)" stroke="#FFD0C4">
    <path fill="none" d="M-3.14,7.11 L3.14,-7.11 " class="primitive"/>
  </g>
  <g transform="translate(77.53,106.67)" stroke="#FFC3B5">
    <path fill="none" d="M3.66,4.72 L-3.66,-4.72 " class="primitive"/>
  </g>
  <g transform="translate(55.49,118.77)" stroke="#FFDBD2">
    <path fill="none" d="M6.47,-1.98 L-6.47,1.98 " class="primitive"/>
  </g>
  <g transform="translate(68.25,108.29)" stroke="#FFD8CD">
    <path fill="none" d="M-3.42,6.17 L3.42,-6.17 " class="primitive"/>
  </g>
  <g transform="translate(57.35,106.75)" stroke="#FFB6A6">
    <path fill="none" d="M5.38,7.81 L-5.38,-7.81 " class="primitive"/>
  </g>
  <g transform="translate(39.38,120.27)" stroke="#76B4E8">
    <path fill="none" d="M5.75,0.8 L-5.75,-0.8 " class="primitive"/>
  </g>
  <g transform="translate(48.97,109.32)" stroke="#76B4E8">
    <path fill="none" d="M-1.56,10.04 L1.56,-10.04 " class="primitive"/>
  </g>
  <g transform="translate(28.83,120.23)" stroke="#FF8776">
    <path fill="none" d="M0.93,-0.34 L-0.93,0.34 " class="primitive"/>
  </g>
  <g transform="translate(32.59,106.82)" stroke="#76B4E8">
    <path fill="none" d="M-0.79,10.38 L0.79,-10.38 " class="primitive"/>
  </g>
  <g transform="translate(29.05,109.12)" stroke="#FFEAE3">
    <path fill="none" d="M2.1,8.13 L-2.1,-8.13 " class="primitive"/>
  </g>
  <g transform="translate(26.24,110.16)" stroke="#5B9EDC">
    <path fill="none" d="M-0.17,9.1 L0.17,-9.1 " class="primitive"/>
  </g>
  <g transform="translate(140.93,85.43)" stroke="#76B4E8">
    <path fill="none" d="M0.13,-0 L-0.13,0 " class="primitive"/>
  </g>
  <g transform="translate(140.42,76.08)" stroke="#76B4E8">
    <path fill="none" d="M2.1,7.38 L-2.1,-7.38 " class="primitive"/>
  </g>
  <g transform="translate(138.29,76.13)" stroke="#610102">
    <path fill="none" d="M0.41,7.35 L-0.41,-7.35 " class="primitive"/>
  </g>
  <g transform="translate(133.81,76.99)" stroke="#71B0E6">
    <path fill="none" d="M3.98,6.77 L-3.98,-6.77 " class="primitive"/>
  </g>
  <g transform="translate(114.8,90.29)" stroke="#76B4E8">
    <path fill="none" d="M4.8,-1.12 L-4.8,1.12 " class="primitive"/>
  </g>
  <g transform="translate(125.18,78.6)" stroke="#76B4E8">
    <path fill="none" d="M-2.95,8.22 L2.95,-8.22 " class="primitive"/>
  </g>
  <g transform="translate(118.15,80.12)" stroke="#610102">
    <path fill="none" d="M2.66,6.73 L-2.66,-6.73 " class="primitive"/>
  </g>
  <g transform="translate(99.18,93.49)" stroke="#76B4E8">
    <path fill="none" d="M6.9,-1.26 L-6.9,1.26 " class="primitive"/>
  </g>
  <g transform="translate(111.4,81.7)" stroke="#76B4E8">
    <path fill="none" d="M-2.72,8.27 L2.72,-8.27 " class="primitive"/>
  </g>
  <g transform="translate(103.8,84.57)" stroke="#610102">
    <path fill="none" d="M3.24,5.57 L-3.24,-5.57 " class="primitive"/>
  </g>
  <g transform="translate(81.48,97.74)" stroke="#76B4E8">
    <path fill="none" d="M6.92,-2.06 L-6.92,2.06 " class="primitive"/>
  </g>
  <g transform="translate(94.94,86.19)" stroke="#76B4E8">
    <path fill="none" d="M-3.7,7.14 L3.7,-7.14 " class="primitive"/>
  </g>
  <g transform="translate(83.7,84.82)" stroke="#610102">
    <path fill="none" d="M5.53,8.61 L-5.53,-8.61 " class="primitive"/>
  </g>
  <g transform="translate(61.74,98.83)" stroke="#76B4E8">
    <path fill="none" d="M8.92,1.25 L-8.92,-1.25 " class="primitive"/>
  </g>
  <g transform="translate(74.86,87.45)" stroke="#76B4E8">
    <path fill="none" d="M-1.88,10.95 L1.88,-10.95 " class="primitive"/>
  </g>
  <g transform="translate(42.18,95.87)" stroke="#76B4E8">
    <path fill="none" d="M6.68,1.1 L-6.68,-1.1 " class="primitive"/>
  </g>
  <g transform="translate(52.36,84.19)" stroke="#76B4E8">
    <path fill="none" d="M-1.29,11.13 L1.29,-11.13 " class="primitive"/>
  </g>
  <g transform="translate(44.82,86.31)" stroke="#FFC8BA">
    <path fill="none" d="M5.05,9.24 L-5.05,-9.24 " class="primitive"/>
  </g>
  <g transform="translate(29.99,96.75)" stroke="#FF9D8C">
    <path fill="none" d="M1.86,-1.21 L-1.86,1.21 " class="primitive"/>
  </g>
  <g transform="translate(36.17,84.88)" stroke="#FFC8BA">
    <path fill="none" d="M-2.11,7.64 L2.11,-7.64 " class="primitive"/>
  </g>
  <g transform="translate(30.51,85.67)" stroke="#C5E5F9">
    <path fill="none" d="M2.36,6.88 L-2.36,-6.88 " class="primitive"/>
  </g>
  <g transform="translate(26.97,87.98)" stroke="#BBE0F7">
    <path fill="none" d="M-0.43,9.08 L0.43,-9.08 " class="primitive"/>
  </g>
  <g transform="translate(24.36,88.55)" stroke="#B1DAF6">
    <path fill="none" d="M1.7,8.55 L-1.7,-8.55 " class="primitive"/>
  </g>
  <g transform="translate(133.29,67.64)" stroke="#76B4E8">
    <path fill="none" d="M2.52,-0.48 L-2.52,0.48 " class="primitive"/>
  </g>
  <g transform="translate(137.51,56.98)" stroke="#76B4E8">
    <path fill="none" d="M0.21,7.79 L-0.21,-7.79 " class="primitive"/>
  </g>
  <g transform="translate(134.78,57.8)" stroke="#610102">
    <path fill="none" d="M2.36,7.08 L-2.36,-7.08 " class="primitive"/>
  </g>
  <g transform="translate(121.78,70.02)" stroke="#76B4E8">
    <path fill="none" d="M5.08,-1.1 L-5.08,1.1 " class="primitive"/>
  </g>
  <g transform="translate(130.3,58.66)" stroke="#76B4E8">
    <path fill="none" d="M-1.19,7.86 L1.19,-7.86 " class="primitive"/>
  </g>
  <g transform="translate(124.65,59.65)" stroke="#610102">
    <path fill="none" d="M3.31,7.04 L-3.31,-7.04 " class="primitive"/>
  </g>
  <g transform="translate(107.15,74.4)" stroke="#76B4E8">
    <path fill="none" d="M5.72,-2.16 L-5.72,2.16 " class="primitive"/>
  </g>
  <g transform="translate(117.62,61.17)" stroke="#76B4E8">
    <path fill="none" d="M-2.34,8.44 L2.34,-8.44 " class="primitive"/>
  </g>
  <g transform="translate(109.66,62.04)" stroke="#610102">
    <path fill="none" d="M4.14,7.73 L-4.14,-7.73 " class="primitive"/>
  </g>
  <g transform="translate(88.32,75.9)" stroke="#76B4E8">
    <path fill="none" d="M9.25,1.13 L-9.25,-1.13 " class="primitive"/>
  </g>
  <g transform="translate(102.07,64.91)" stroke="#76B4E8">
    <path fill="none" d="M-2.11,10.4 L2.11,-10.4 " class="primitive"/>
  </g>
  <g transform="translate(65.49,72.8)" stroke="#76B4E8">
    <path fill="none" d="M9.62,1.43 L-9.62,-1.43 " class="primitive"/>
  </g>
  <g transform="translate(80.22,62.05)" stroke="#76B4E8">
    <path fill="none" d="M-2.65,10.54 L2.65,-10.54 " class="primitive"/>
  </g>
  <g transform="translate(70.23,64.06)" stroke="#76B4E8">
    <path fill="none" d="M5.76,8.79 L-5.76,-8.79 " class="primitive"/>
  </g>
  <g transform="translate(46.35,73.19)" stroke="#FFC8BA">
    <path fill="none" d="M5.61,-1.58 L-5.61,1.58 " class="primitive"/>
  </g>
  <g transform="translate(58.63,62.34)" stroke="#610102">
    <path fill="none" d="M-3.79,6.98 L3.79,-6.98 " class="primitive"/>
  </g>
  <g transform="translate(48.77,63.12)" stroke="#76B4E8">
    <path fill="none" d="M4.03,6.27 L-4.03,-6.27 " class="primitive"/>
  </g>
  <g transform="translate(33.15,76.11)" stroke="#E6F4FD">
    <path fill="none" d="M3.67,-0.52 L-3.67,0.52 " class="primitive"/>
  </g>
  <g transform="translate(41.23,65.24)" stroke="#FFC8BA">
    <path fill="none" d="M-1.96,8.13 L1.96,-8.13 " class="primitive"/>
  </g>
  <g transform="translate(34.5,65.99)" stroke="#FFF3F0">
    <path fill="none" d="M3.47,7.51 L-3.47,-7.51 " class="primitive"/>
  </g>
  <g transform="translate(24.89,77.47)" stroke="#FF8776">
    <path fill="none" d="M0.65,-0.14 L-0.65,0.14 " class="primitive"/>
  </g>
  <g transform="translate(28.85,66.78)" stroke="#FFEDE8">
    <path fill="none" d="M-1.08,8.14 L1.08,-8.14 " class="primitive"/>
  </g>
  <g transform="translate(24.9,67.06)" stroke="#FFD4C9">
    <path fill="none" d="M2.09,7.91 L-2.09,-7.91 " class="primitive"/>
  </g>
  <g transform="translate(22.29,67.63)" stroke="#4285C9">
    <path fill="none" d="M-0.01,8.41 L0.01,-8.41 " class="primitive"/>
  </g>
  <g transform="translate(134.52,48)" stroke="#76B4E8">
    <path fill="none" d="M0.81,-0.24 L-0.81,0.24 " class="primitive"/>
  </g>
  <g transform="translate(135.18,39.43)" stroke="#71B0E6">
    <path fill="none" d="M1.55,5.83 L-1.55,-5.83 " class="primitive"/>
  </g>
  <g transform="translate(126.14,49.81)" stroke="#71B0E6">
    <path fill="none" d="M3.68,-0.64 L-3.68,0.64 " class="primitive"/>
  </g>
  <g transform="translate(132.46,40.24)" stroke="#610102">
    <path fill="none" d="M-0.51,6.58 L0.51,-6.58 " class="primitive"/>
  </g>
  <g transform="translate(128.47,41.07)" stroke="#76B4E8">
    <path fill="none" d="M2.54,5.91 L-2.54,-5.91 " class="primitive"/>
  </g>
  <g transform="translate(112.53,51.67)" stroke="#76B4E8">
    <path fill="none" d="M5.97,-0.66 L-5.97,0.66 " class="primitive"/>
  </g>
  <g transform="translate(122.82,42.06)" stroke="#610102">
    <path fill="none" d="M-1.81,6.8 L1.81,-6.8 " class="primitive"/>
  </g>
  <g transform="translate(116,42.88)" stroke="#76B4E8">
    <path fill="none" d="M3.5,6.17 L-3.5,-6.17 " class="primitive"/>
  </g>
  <g transform="translate(93.96,51.06)" stroke="#71B0E6">
    <path fill="none" d="M8.63,1.21 L-8.63,-1.21 " class="primitive"/>
  </g>
  <g transform="translate(108.04,43.76)" stroke="#610102">
    <path fill="none" d="M-2.73,6.93 L2.73,-6.93 " class="primitive"/>
  </g>
  <g transform="translate(99.29,44.13)" stroke="#76B4E8">
    <path fill="none" d="M4.22,6.73 L-4.22,-6.73 " class="primitive"/>
  </g>
  <g transform="translate(73.36,51.59)" stroke="#610102">
    <path fill="none" d="M8.03,-1.62 L-8.03,1.62 " class="primitive"/>
  </g>
  <g transform="translate(88.68,42.64)" stroke="#610102">
    <path fill="none" d="M-4.11,5.35 L4.11,-5.35 " class="primitive"/>
  </g>
  <g transform="translate(80.33,43.11)" stroke="#76B4E8">
    <path fill="none" d="M2.17,4.65 L-2.17,-4.65 " class="primitive"/>
  </g>
  <g transform="translate(53.51,54.39)" stroke="#76B4E8">
    <path fill="none" d="M7.86,-0.63 L-7.86,0.63 " class="primitive"/>
  </g>
  <g transform="translate(70.34,45.13)" stroke="#76B4E8">
    <path fill="none" d="M-5.7,6.93 L5.7,-6.93 " class="primitive"/>
  </g>
  <g transform="translate(55.57,46.28)" stroke="#71B0E6">
    <path fill="none" d="M6.35,5.96 L-6.35,-5.96 " class="primitive"/>
  </g>
  <g transform="translate(36.93,55.92)" stroke="#B1DAF6">
    <path fill="none" d="M4.74,-0.52 L-4.74,0.52 " class="primitive"/>
  </g>
  <g transform="translate(45.71,47.06)" stroke="#610102">
    <path fill="none" d="M-1.56,6.17 L1.56,-6.17 " class="primitive"/>
  </g>
  <g transform="translate(38.77,47.3)" stroke="#76B4E8">
    <path fill="none" d="M3.83,6.17 L-3.83,-6.17 " class="primitive"/>
  </g>
  <g transform="translate(26.24,56.94)" stroke="#BBE0F7">
    <path fill="none" d="M1.95,-0.14 L-1.95,0.14 " class="primitive"/>
  </g>
  <g transform="translate(32.04,48.04)" stroke="#C7382E">
    <path fill="none" d="M-1.43,6.66 L1.43,-6.66 " class="primitive"/>
  </g>
  <g transform="translate(26.67,48.12)" stroke="#B1DAF6">
    <path fill="none" d="M2.76,6.69 L-2.76,-6.69 " class="primitive"/>
  </g>
  <g transform="translate(22.72,48.4)" stroke="#FF8D7B">
    <path fill="none" d="M-0.33,6.82 L0.33,-6.82 " class="primitive"/>
  </g>
  <g transform="translate(20.03,47.85)" stroke="#B1DAF6">
    <path fill="none" d="M1.8,7.43 L-1.8,-7.43 " class="primitive"/>
  </g>
  <g transform="translate(129.13,32.5)" stroke="#76B4E8">
    <path fill="none" d="M2.03,-0.42 L-2.03,0.42 " class="primitive"/>
  </g>
  <g transform="translate(133.61,24.71)" stroke="#76B4E8">
    <path fill="none" d="M-0.35,4.96 L0.35,-4.96 " class="primitive"/>
  </g>
  <g transform="translate(131.02,25.97)" stroke="#FFB1A1">
    <path fill="none" d="M1.41,3.82 L-1.41,-3.82 " class="primitive"/>
  </g>
  <g transform="translate(118.33,34.15)" stroke="#71B0E6">
    <path fill="none" d="M4.83,-0.58 L-4.83,0.58 " class="primitive"/>
  </g>
  <g transform="translate(127.04,26.8)" stroke="#FFDBD2">
    <path fill="none" d="M-1.33,4.6 L1.33,-4.6 " class="primitive"/>
  </g>
  <g transform="translate(121.53,27.72)" stroke="#FFBFB0">
    <path fill="none" d="M2.53,3.92 L-2.53,-3.92 " class="primitive"/>
  </g>
  <g transform="translate(102.76,35.34)" stroke="#76B4E8">
    <path fill="none" d="M6.75,-0.28 L-6.75,0.28 " class="primitive"/>
  </g>
  <g transform="translate(114.71,28.54)" stroke="#FFD0C4">
    <path fill="none" d="M-2.31,4.64 L2.31,-4.64 " class="primitive"/>
  </g>
  <g transform="translate(106.75,29.31)" stroke="#FFD8CD">
    <path fill="none" d="M3.47,4.13 L-3.47,-4.13 " class="primitive"/>
  </g>
  <g transform="translate(85.66,36.18)" stroke="#76B4E8">
    <path fill="none" d="M6.35,-0.36 L-6.35,0.36 " class="primitive"/>
  </g>
  <g transform="translate(98,29.67)" stroke="#FFB6A6">
    <path fill="none" d="M-2.89,4.37 L2.89,-4.37 " class="primitive"/>
  </g>
  <g transform="translate(88.6,30.36)" stroke="#FFEAE3">
    <path fill="none" d="M3.98,3.94 L-3.98,-3.94 " class="primitive"/>
  </g>
  <g transform="translate(80.25,30.84)" stroke="#FFA291">
    <path fill="none" d="M-2.04,4.03 L2.04,-4.03 " class="primitive"/>
  </g>
  <g transform="translate(70.24,31.98)" stroke="#71B0E6">
    <path fill="none" d="M5.4,3.57 L-5.4,-3.57 " class="primitive"/>
  </g>
  <g transform="translate(40.82,39.19)" stroke="#76B4E8">
    <path fill="none" d="M4.94,-0.17 L-4.94,0.17 " class="primitive"/>
  </g>
  <g transform="translate(55.47,33.13)" stroke="#76B4E8">
    <path fill="none" d="M-6.11,4.62 L6.11,-4.62 " class="primitive"/>
  </g>
  <g transform="translate(43.89,32.82)" stroke="#610102">
    <path fill="none" d="M2.8,4.43 L-2.8,-4.43 " class="primitive"/>
  </g>
  <g transform="translate(28.52,39.51)" stroke="#71B0E6">
    <path fill="none" d="M3.37,-0.05 L-3.37,0.05 " class="primitive"/>
  </g>
  <g transform="translate(36.96,33.06)" stroke="#76B4E8">
    <path fill="none" d="M-2.2,4.56 L2.2,-4.56 " class="primitive"/>
  </g>
  <g transform="translate(29.98,33.15)" stroke="#610102">
    <path fill="none" d="M2.85,4.58 L-2.85,-4.58 " class="primitive"/>
  </g>
  <g transform="translate(20.45,39.03)" stroke="#BBE0F7">
    <path fill="none" d="M0.74,0.15 L-0.74,-0.15 " class="primitive"/>
  </g>
  <g transform="translate(24.61,33.22)" stroke="#76B4E8">
    <path fill="none" d="M-1.01,4.41 L1.01,-4.41 " class="primitive"/>
  </g>
  <g transform="translate(20.55,32.88)" stroke="#A7211B">
    <path fill="none" d="M1.87,4.83 L-1.87,-4.83 " class="primitive"/>
  </g>
  <g transform="translate(17.86,32.33)" stroke="#5194D5">
    <path fill="none" d="M-0.07,4.14 L0.07,-4.14 " class="primitive"/>
  </g>
  <g transform="translate(131.51,19.01)" stroke="#FFDBD2">
    <path fill="none" d="M0.79,-0.38 L-0.79,0.38 " class="primitive"/>
  </g>
  <g transform="translate(132.89,15.54)" stroke="#71B0E6">
    <path fill="none" d="M0.25,0.45 L-0.25,-0.45 " class="primitive"/>
  </g>
  <g transform="translate(123.42,21.2)" stroke="#86C0ED">
    <path fill="none" d="M3.53,-0.59 L-3.53,0.59 " class="primitive"/>
  </g>
  <g transform="translate(130.31,16.81)" stroke="#FFB1A1">
    <path fill="none" d="M-0.64,1.61 L0.64,-1.61 " class="primitive"/>
  </g>
  <g transform="translate(126.4,17.61)" stroke="#FFDBD2">
    <path fill="none" d="M1.15,1.22 L-1.15,-1.22 " class="primitive"/>
  </g>
  <g transform="translate(109.96,22.88)" stroke="#91C7F0">
    <path fill="none" d="M5.97,-0.57 L-5.97,0.57 " class="primitive"/>
  </g>
  <g transform="translate(120.9,18.53)" stroke="#FFBFB0">
    <path fill="none" d="M-1.71,2.05 L1.71,-2.05 " class="primitive"/>
  </g>
  <g transform="translate(114,19.38)" stroke="#FFD0C4">
    <path fill="none" d="M2.27,1.59 L-2.27,-1.59 " class="primitive"/>
  </g>
  <g transform="translate(92.59,24.33)" stroke="#91C7F0">
    <path fill="none" d="M7.41,-0.54 L-7.41,0.54 " class="primitive"/>
  </g>
  <g transform="translate(106.04,20.14)" stroke="#FFD4C9">
    <path fill="none" d="M-2.53,2.19 L2.53,-2.19 " class="primitive"/>
  </g>
  <g transform="translate(96.93,20.89)" stroke="#FFBAAB">
    <path fill="none" d="M3.31,1.8 L-3.31,-1.8 " class="primitive"/>
  </g>
  <g transform="translate(73.18,26.16)" stroke="#FFE6DF">
    <path fill="none" d="M8.02,-0.91 L-8.02,0.91 " class="primitive"/>
  </g>
  <g transform="translate(87.53,21.58)" stroke="#FFE6DF">
    <path fill="none" d="M-2.77,2.2 L2.77,-2.2 " class="primitive"/>
  </g>
  <g transform="translate(76.81,22.09)" stroke="#FFA291">
    <path fill="none" d="M4.57,2.1 L-4.57,-2.1 " class="primitive"/>
  </g>
  <g transform="translate(51.6,27)" stroke="#76B4E8">
    <path fill="none" d="M9.57,0.25 L-9.57,-0.25 " class="primitive"/>
  </g>
  <g transform="translate(66.8,23.23)" stroke="#76B4E8">
    <path fill="none" d="M-2.29,2.58 L2.29,-2.58 " class="primitive"/>
  </g>
  <g transform="translate(33.05,26.78)" stroke="#71B0E6">
    <path fill="none" d="M4.98,-0.06 L-4.98,0.06 " class="primitive"/>
  </g>
  <g transform="translate(42.58,22.31)" stroke="#76B4E8">
    <path fill="none" d="M-1.55,2.67 L1.55,-2.67 " class="primitive"/>
  </g>
  <g transform="translate(35.36,23.28)" stroke="#FFB6A6">
    <path fill="none" d="M3.06,2.24 L-3.06,-2.24 " class="primitive"/>
  </g>
  <g transform="translate(22.02,26.52)" stroke="#9CCEF2">
    <path fill="none" d="M2.07,0.17 L-2.07,-0.17 " class="primitive"/>
  </g>
  <g transform="translate(28.38,23.36)" stroke="#FFD8CD">
    <path fill="none" d="M-1.21,1.84 L1.21,-1.84 " class="primitive"/>
  </g>
  <g transform="translate(22.81,23.18)" stroke="#FFCCBF">
    <path fill="none" d="M1.94,2.19 L-1.94,-2.19 " class="primitive"/>
  </g>
  <g transform="translate(18.75,22.84)" stroke="#FFD0C4">
    <path fill="none" d="M-0.33,1.4 L0.33,-1.4 " class="primitive"/>
  </g>
  <g transform="translate(15.64,21.45)" stroke="#FFE6DF">
    <path fill="none" d="M1.43,2.94 L-1.43,-2.94 " class="primitive"/>
  </g>
  <g transform="translate(127.79,14.14)" stroke="#76B4E8">
    <path fill="none" d="M1.94,-0.4 L-1.94,0.4 " class="primitive"/>
  </g>
  <g transform="translate(116.99,15.79)" stroke="#76B4E8">
    <path fill="none" d="M4.91,-0.61 L-4.91,0.61 " class="primitive"/>
  </g>
  <g transform="translate(100.98,17.39)" stroke="#71B0E6">
    <path fill="none" d="M7.12,-0.58 L-7.12,0.58 " class="primitive"/>
  </g>
  <g transform="translate(81.14,18.65)" stroke="#76B4E8">
    <path fill="none" d="M8.72,-0.42 L-8.72,0.42 " class="primitive"/>
  </g>
  <g transform="translate(57.78,18.54)" stroke="#71B0E6">
    <path fill="none" d="M10.65,0.53 L-10.65,-0.53 " class="primitive"/>
  </g>
  <g transform="translate(37.91,18.88)" stroke="#FFDBD2">
    <path fill="none" d="M5.24,-0.7 L-5.24,0.7 " class="primitive"/>
  </g>
  <g transform="translate(25.12,19.67)" stroke="#8CC3EE">
    <path fill="none" d="M3.57,0.11 L-3.57,-0.11 " class="primitive"/>
  </g>
  <g transform="translate(16.44,18.11)" stroke="#ACD7F5">
    <path fill="none" d="M1.28,0.57 L-1.28,-0.57 " class="primitive"/>
  </g>
</g>
<g stroke-width="1.5" id="img-40768487-2">
</g>
<g font-size="4" stroke="#000000" stroke-opacity="0.000" fill="#000000" id="img-40768487-3">
</g>
<g stroke-width="0" stroke="#000000" stroke-opacity="0.000" fill="#000000" id="img-40768487-4">
  <g transform="translate(144.62,119.2)">
    <circle cx="0" cy="0" r="1.92" class="primitive"/>
  </g>
  <g transform="translate(134.76,120.35)">
    <circle cx="0" cy="0" r="1.92" class="primitive"/>
  </g>
  <g transform="translate(119.39,123)">
    <circle cx="0" cy="0" r="1.92" class="primitive"/>
  </g>
  <g transform="translate(102.3,126.48)">
    <circle cx="0" cy="0" r="1.92" class="primitive"/>
  </g>
  <g transform="translate(83.68,130.49)">
    <circle cx="0" cy="0" r="1.92" class="primitive"/>
  </g>
  <g transform="translate(65.2,134.59)">
    <circle cx="0" cy="0" r="1.92" class="primitive"/>
  </g>
  <g transform="translate(46.69,138.67)">
    <circle cx="0" cy="0" r="1.92" class="primitive"/>
  </g>
  <g transform="translate(32.46,142.34)">
    <circle cx="0" cy="0" r="1.92" class="primitive"/>
  </g>
  <g transform="translate(26.23,146.67)">
    <circle cx="0" cy="0" r="1.92" class="primitive"/>
  </g>
  <g transform="translate(146.67,114.2)">
    <circle cx="0" cy="0" r="1.92" class="primitive"/>
  </g>
  <g transform="translate(142.19,113.29)">
    <circle cx="0" cy="0" r="1.92" class="primitive"/>
  </g>
  <g transform="translate(124.17,115.9)">
    <circle cx="0" cy="0" r="1.92" class="primitive"/>
  </g>
  <g transform="translate(110.15,118.69)">
    <circle cx="0" cy="0" r="1.92" class="primitive"/>
  </g>
  <g transform="translate(92.55,122.4)">
    <circle cx="0" cy="0" r="1.92" class="primitive"/>
  </g>
  <g transform="translate(74.22,126.3)">
    <circle cx="0" cy="0" r="1.92" class="primitive"/>
  </g>
  <g transform="translate(58.71,129.83)">
    <circle cx="0" cy="0" r="1.92" class="primitive"/>
  </g>
  <g transform="translate(35.89,133.96)">
    <circle cx="0" cy="0" r="1.92" class="primitive"/>
  </g>
  <g transform="translate(28.78,135.33)">
    <circle cx="0" cy="0" r="1.92" class="primitive"/>
  </g>
  <g transform="translate(142.62,101.41)">
    <circle cx="0" cy="0" r="1.92" class="primitive"/>
  </g>
  <g transform="translate(132.46,102.78)">
    <circle cx="0" cy="0" r="1.92" class="primitive"/>
  </g>
  <g transform="translate(117.14,105.64)">
    <circle cx="0" cy="0" r="1.92" class="primitive"/>
  </g>
  <g transform="translate(100.63,109.04)">
    <circle cx="0" cy="0" r="1.92" class="primitive"/>
  </g>
  <g transform="translate(82.41,112.97)">
    <circle cx="0" cy="0" r="1.92" class="primitive"/>
  </g>
  <g transform="translate(63.87,116.21)">
    <circle cx="0" cy="0" r="1.92" class="primitive"/>
  </g>
  <g transform="translate(47.11,121.34)">
    <circle cx="0" cy="0" r="1.92" class="primitive"/>
  </g>
  <g transform="translate(31.65,119.19)">
    <circle cx="0" cy="0" r="1.92" class="primitive"/>
  </g>
  <g transform="translate(26.02,121.26)">
    <circle cx="0" cy="0" r="1.92" class="primitive"/>
  </g>
  <g transform="translate(143.06,85.39)">
    <circle cx="0" cy="0" r="1.92" class="primitive"/>
  </g>
  <g transform="translate(138.8,85.48)">
    <circle cx="0" cy="0" r="1.92" class="primitive"/>
  </g>
  <g transform="translate(121.55,88.71)">
    <circle cx="0" cy="0" r="1.92" class="primitive"/>
  </g>
  <g transform="translate(108.05,91.87)">
    <circle cx="0" cy="0" r="1.92" class="primitive"/>
  </g>
  <g transform="translate(90.32,95.11)">
    <circle cx="0" cy="0" r="1.92" class="primitive"/>
  </g>
  <g transform="translate(72.64,100.37)">
    <circle cx="0" cy="0" r="1.92" class="primitive"/>
  </g>
  <g transform="translate(50.84,97.3)">
    <circle cx="0" cy="0" r="1.92" class="primitive"/>
  </g>
  <g transform="translate(33.53,94.44)">
    <circle cx="0" cy="0" r="1.92" class="primitive"/>
  </g>
  <g transform="translate(26.45,99.06)">
    <circle cx="0" cy="0" r="1.92" class="primitive"/>
  </g>
  <g transform="translate(137.77,66.77)">
    <circle cx="0" cy="0" r="1.92" class="primitive"/>
  </g>
  <g transform="translate(128.81,68.5)">
    <circle cx="0" cy="0" r="1.92" class="primitive"/>
  </g>
  <g transform="translate(114.74,71.54)">
    <circle cx="0" cy="0" r="1.92" class="primitive"/>
  </g>
  <g transform="translate(99.55,77.27)">
    <circle cx="0" cy="0" r="1.92" class="primitive"/>
  </g>
  <g transform="translate(77.09,74.53)">
    <circle cx="0" cy="0" r="1.92" class="primitive"/>
  </g>
  <g transform="translate(53.89,71.07)">
    <circle cx="0" cy="0" r="1.92" class="primitive"/>
  </g>
  <g transform="translate(38.81,75.32)">
    <circle cx="0" cy="0" r="1.92" class="primitive"/>
  </g>
  <g transform="translate(27.5,76.9)">
    <circle cx="0" cy="0" r="1.92" class="primitive"/>
  </g>
  <g transform="translate(22.28,78.04)">
    <circle cx="0" cy="0" r="1.92" class="primitive"/>
  </g>
  <g transform="translate(137.24,47.19)">
    <circle cx="0" cy="0" r="1.92" class="primitive"/>
  </g>
  <g transform="translate(131.79,48.82)">
    <circle cx="0" cy="0" r="1.92" class="primitive"/>
  </g>
  <g transform="translate(120.49,50.8)">
    <circle cx="0" cy="0" r="1.92" class="primitive"/>
  </g>
  <g transform="translate(104.58,52.55)">
    <circle cx="0" cy="0" r="1.92" class="primitive"/>
  </g>
  <g transform="translate(83.35,49.57)">
    <circle cx="0" cy="0" r="1.92" class="primitive"/>
  </g>
  <g transform="translate(63.37,53.6)">
    <circle cx="0" cy="0" r="1.92" class="primitive"/>
  </g>
  <g transform="translate(43.66,55.17)">
    <circle cx="0" cy="0" r="1.92" class="primitive"/>
  </g>
  <g transform="translate(30.19,56.66)">
    <circle cx="0" cy="0" r="1.92" class="primitive"/>
  </g>
  <g transform="translate(22.3,57.22)">
    <circle cx="0" cy="0" r="1.92" class="primitive"/>
  </g>
  <g transform="translate(133.12,31.67)">
    <circle cx="0" cy="0" r="1.92" class="primitive"/>
  </g>
  <g transform="translate(125.14,33.33)">
    <circle cx="0" cy="0" r="1.92" class="primitive"/>
  </g>
  <g transform="translate(111.51,34.97)">
    <circle cx="0" cy="0" r="1.92" class="primitive"/>
  </g>
  <g transform="translate(94.01,35.71)">
    <circle cx="0" cy="0" r="1.92" class="primitive"/>
  </g>
  <g transform="translate(77.3,36.65)">
    <circle cx="0" cy="0" r="1.92" class="primitive"/>
  </g>
  <g transform="translate(47.76,38.95)">
    <circle cx="0" cy="0" r="1.92" class="primitive"/>
  </g>
  <g transform="translate(33.89,39.43)">
    <circle cx="0" cy="0" r="1.92" class="primitive"/>
  </g>
  <g transform="translate(23.15,39.58)">
    <circle cx="0" cy="0" r="1.92" class="primitive"/>
  </g>
  <g transform="translate(17.76,38.47)">
    <circle cx="0" cy="0" r="1.92" class="primitive"/>
  </g>
  <g transform="translate(134.09,17.75)">
    <circle cx="0" cy="0" r="1.92" class="primitive"/>
  </g>
  <g transform="translate(128.93,20.28)">
    <circle cx="0" cy="0" r="1.92" class="primitive"/>
  </g>
  <g transform="translate(117.92,22.12)">
    <circle cx="0" cy="0" r="1.92" class="primitive"/>
  </g>
  <g transform="translate(102,23.64)">
    <circle cx="0" cy="0" r="1.92" class="primitive"/>
  </g>
  <g transform="translate(83.19,25.02)">
    <circle cx="0" cy="0" r="1.92" class="primitive"/>
  </g>
  <g transform="translate(63.17,27.3)">
    <circle cx="0" cy="0" r="1.92" class="primitive"/>
  </g>
  <g transform="translate(40.03,26.7)">
    <circle cx="0" cy="0" r="1.92" class="primitive"/>
  </g>
  <g transform="translate(26.08,26.86)">
    <circle cx="0" cy="0" r="1.92" class="primitive"/>
  </g>
  <g transform="translate(17.95,26.18)">
    <circle cx="0" cy="0" r="1.92" class="primitive"/>
  </g>
  <g transform="translate(131.69,13.33)">
    <circle cx="0" cy="0" r="1.92" class="primitive"/>
  </g>
  <g transform="translate(123.88,14.94)">
    <circle cx="0" cy="0" r="1.92" class="primitive"/>
  </g>
  <g transform="translate(110.09,16.64)">
    <circle cx="0" cy="0" r="1.92" class="primitive"/>
  </g>
  <g transform="translate(91.87,18.13)">
    <circle cx="0" cy="0" r="1.92" class="primitive"/>
  </g>
  <g transform="translate(70.42,19.16)">
    <circle cx="0" cy="0" r="1.92" class="primitive"/>
  </g>
  <g transform="translate(45.13,17.91)">
    <circle cx="0" cy="0" r="1.92" class="primitive"/>
  </g>
  <g transform="translate(30.68,19.85)">
    <circle cx="0" cy="0" r="1.92" class="primitive"/>
  </g>
  <g transform="translate(19.55,19.49)">
    <circle cx="0" cy="0" r="1.92" class="primitive"/>
  </g>
  <g transform="translate(13.33,16.72)">
    <circle cx="0" cy="0" r="1.92" class="primitive"/>
  </g>
</g>
<g font-size="4" stroke="#000000" stroke-opacity="0.000" fill="#000000" id="img-40768487-5">
</g>
</svg>
